<svg xmlns="http://www.w3.org/2000/svg" xmlns:xlink="http://www.w3.org/1999/xlink">
  <defs>
    <style>
      .sprite-symbol-usage {
        display: none;
      }

      .sprite-symbol-usage:target {
        display: inline;
      }
    </style>
  </defs><svg viewBox="0 0 20 32" id="arrow-left-dark" class="sprite-symbol-usage">
    <path fill="#FFFFFF" d="M9.038 16l9.573-9.573c1.442-1.442 1.442-3.78 0-5.222s-3.78-1.442-5.222 0l-12.010 12.010c-1.538 1.538-1.538 4.032 0 5.57l12.010 12.010c1.442 1.442 3.78 1.442 5.222 0s1.442-3.78 0-5.222l-9.573-9.573z" />
  </svg><svg viewBox="0 0 20 32" id="arrow-left-light" class="sprite-symbol-usage">
    <path fill="rgb(77, 77, 77)" d="M9.038 16l9.573-9.573c1.442-1.442 1.442-3.78 0-5.222s-3.78-1.442-5.222 0l-12.010 12.010c-1.538 1.538-1.538 4.032 0 5.57l12.010 12.010c1.442 1.442 3.78 1.442 5.222 0s1.442-3.78 0-5.222l-9.573-9.573z" />
  </svg><svg viewBox="0 0 10 18" id="arrow-left-thin-dark" class="sprite-symbol-usage">
    <g id="arrow-left-thin-dark_Social-Media-Templates" stroke="none" strokeWidth="1" fill="none" fillRule="evenodd">
      <g id="arrow-left-thin-dark_Arrows/Chevron-Left" transform="translate(-9.000000, -5.000000)" fill="#FFFFFF">
        <path d="M18.6916143,22.6897615 C18.2804563,23.1034128 17.6142682,23.1034128 17.2031101,22.6897615 L9.3083728,14.748873 C9.11094712,14.5504665 9,14.2811216 9,14.0002404 C9,13.7193591 9.11094712,13.4500142 9.3083728,13.2516077 L17.2031101,5.31071922 C17.6136558,4.89677854 18.2796818,4.89637573 18.6907209,5.30981951 C19.10176,5.7232633 19.10216,6.39399093 18.6916143,6.8079316 L11.5410765,14.0002668 L18.6916143,21.192602 C18.8890466,21.3909836 19,21.6603135 19,21.9411818 C19,22.22205 18.8890466,22.49138 18.6916143,22.6897615 Z" id="arrow-left-thin-dark_ðŸŽ¨-Icon-Color" transform="translate(14.000000, 14.000000) scale(-1, 1) rotate(-180.000000) translate(-14.000000, -14.000000) " />
      </g>
    </g>
  </svg><svg viewBox="0 0 10 18" id="arrow-left-thin-light" class="sprite-symbol-usage">
    <g id="arrow-left-thin-light_Social-Media-Templates" stroke="none" strokeWidth="1" fill="none" fillRule="evenodd">
      <g id="arrow-left-thin-light_Arrows/Chevron-Left" transform="translate(-9.000000, -5.000000)" fill="black">
        <path d="M18.6916143,22.6897615 C18.2804563,23.1034128 17.6142682,23.1034128 17.2031101,22.6897615 L9.3083728,14.748873 C9.11094712,14.5504665 9,14.2811216 9,14.0002404 C9,13.7193591 9.11094712,13.4500142 9.3083728,13.2516077 L17.2031101,5.31071922 C17.6136558,4.89677854 18.2796818,4.89637573 18.6907209,5.30981951 C19.10176,5.7232633 19.10216,6.39399093 18.6916143,6.8079316 L11.5410765,14.0002668 L18.6916143,21.192602 C18.8890466,21.3909836 19,21.6603135 19,21.9411818 C19,22.22205 18.8890466,22.49138 18.6916143,22.6897615 Z" id="arrow-left-thin-light_ðŸŽ¨-Icon-Color" transform="translate(14.000000, 14.000000) scale(-1, 1) rotate(-180.000000) translate(-14.000000, -14.000000) " />
      </g>
    </g>
  </svg><svg viewBox="0 0 10 18" id="arrow-right-thin-dark" class="sprite-symbol-usage">
    <g stroke="none" strokeWidth="1" fill="#4D4D4D" fillRule="evenodd">
      <g id="arrow-right-thin-dark_Arrows/Chevron-Right" transform="translate(-9.000000, -5.000000)" fill="#FFFFFF">
        <path d="M18.6916143,22.6897615 C18.2804563,23.1034128 17.6142682,23.1034128 17.2031101,22.6897615 L9.3083728,14.748873 C9.11094712,14.5504665 9,14.2811216 9,14.0002404 C9,13.7193591 9.11094712,13.4500142 9.3083728,13.2516077 L17.2031101,5.31071922 C17.6136558,4.89677854 18.2796818,4.89637573 18.6907209,5.30981951 C19.10176,5.7232633 19.10216,6.39399093 18.6916143,6.8079316 L11.5410765,14.0002668 L18.6916143,21.192602 C18.8890466,21.3909836 19,21.6603135 19,21.9411818 C19,22.22205 18.8890466,22.49138 18.6916143,22.6897615 Z" id="arrow-right-thin-dark_ðŸŽ¨-Icon-Color" transform="translate(14.000000, 14.000000) rotate(-180.000000) translate(-14.000000, -14.000000) " />
      </g>
    </g>
  </svg><svg viewBox="0 0 10 18" id="arrow-right-thin-light" class="sprite-symbol-usage">
    <g stroke="none" strokeWidth="1" fill="#4D4D4D" fillRule="evenodd">
      <g id="arrow-right-thin-light_Arrows/Chevron-Right" transform="translate(-9.000000, -5.000000)" fill="black">
        <path d="M18.6916143,22.6897615 C18.2804563,23.1034128 17.6142682,23.1034128 17.2031101,22.6897615 L9.3083728,14.748873 C9.11094712,14.5504665 9,14.2811216 9,14.0002404 C9,13.7193591 9.11094712,13.4500142 9.3083728,13.2516077 L17.2031101,5.31071922 C17.6136558,4.89677854 18.2796818,4.89637573 18.6907209,5.30981951 C19.10176,5.7232633 19.10216,6.39399093 18.6916143,6.8079316 L11.5410765,14.0002668 L18.6916143,21.192602 C18.8890466,21.3909836 19,21.6603135 19,21.9411818 C19,22.22205 18.8890466,22.49138 18.6916143,22.6897615 Z" id="arrow-right-thin-light_ðŸŽ¨-Icon-Color" transform="translate(14.000000, 14.000000) rotate(-180.000000) translate(-14.000000, -14.000000) " />
      </g>
    </g>
  </svg><svg viewBox="0 0 32 32" id="check" class="sprite-symbol-usage">
    <path fill="white" d="M29.839 10.107q0 0.714-0.5 1.214l-15.357 15.357q-0.5 0.5-1.214 0.5t-1.214-0.5l-8.893-8.893q-0.5-0.5-0.5-1.214t0.5-1.214l2.429-2.429q0.5-0.5 1.214-0.5t1.214 0.5l5.25 5.268 11.714-11.732q0.5-0.5 1.214-0.5t1.214 0.5l2.429 2.429q0.5 0.5 0.5 1.214z" />
  </svg><svg viewBox="0 0 22 22" id="check-circle-big" class="sprite-symbol-usage">
    <g stroke="none" strokeWidth="1" fill="#4db85f" fillRule="evenodd" transform="translate(-5, -5)">
      <path d="M16,5 C22.0751322,5 27,9.92486775 27,16 C27,22.0751322 22.0751322,27 16,27 C9.92486775,27 5,22.0751322 5,16 C5,9.92486775 9.92486775,5 16,5 Z M21.7430238,11.1177863 C21.2821124,10.8355797 21.0032741,11.131522 20.8546204,11.2687633 L20.8546204,11.2687633 L14.2395307,18.3357494 L11.1103525,16.0985788 C10.909437,15.9641383 10.6330627,15.6938652 10.2218402,16.0303195 C9.94327553,16.2754005 9.94327553,16.6298598 10.1316533,16.8785367 L10.1316533,16.8785367 L13.5970986,21.6763768 C13.7437129,21.8791796 13.9835564,22 14.2395307,22 C14.495505,22 14.7353485,21.8791796 14.8819628,21.6763768 L14.8819628,21.6763768 L21.8717387,11.9992469 C22.0600629,11.750594 22.0600629,11.3395334 21.7430238,11.1177863 Z" />
    </g>
  </svg><svg viewBox="0 0 32 32" fill="#FFFFFF" id="close-dark" class="sprite-symbol-usage">
    <path d="M1.081 6.303l24.615 24.615c1.442 1.442 3.78 1.442 5.222 0s1.442-3.78 0-5.222l-24.615-24.615c-1.442-1.442-3.78-1.442-5.222 0s-1.442 3.78 0 5.222z" />
    <path d="M25.697 1.081l-24.615 24.615c-1.442 1.442-1.442 3.78 0 5.222s3.78 1.442 5.222 0l24.615-24.615c1.442-1.442 1.442-3.78 0-5.222s-3.78-1.442-5.222 0z" />
  </svg><svg viewBox="0 0 32 32" fill="#4D4D4D" id="close-light" class="sprite-symbol-usage">
    <path d="M1.081 6.303l24.615 24.615c1.442 1.442 3.78 1.442 5.222 0s1.442-3.78 0-5.222l-24.615-24.615c-1.442-1.442-3.78-1.442-5.222 0s-1.442 3.78 0 5.222z" />
    <path d="M25.697 1.081l-24.615 24.615c-1.442 1.442-1.442 3.78 0 5.222s3.78 1.442 5.222 0l24.615-24.615c1.442-1.442 1.442-3.78 0-5.222s-3.78-1.442-5.222 0z" />
  </svg><svg viewBox="0 0 28 28" id="dismiss-large-dark" class="sprite-symbol-usage">
    <g id="dismiss-large-dark_â­ï¸-Icons-(Icon-font)" stroke="none" strokeWidth="1" fillRule="evenodd" fill="#FFFFFF">
      <path d="M22.4099026,5.43933983 C22.995689,6.02512627 22.995689,6.97487373 22.4099026,7.56066017 L16.045,13.924 L22.4099026,20.2885822 C22.995689,20.8743687 22.995689,21.8241161 22.4099026,22.4099026 C21.8241161,22.995689 20.8743687,22.995689 20.2885822,22.4099026 L13.924,16.045 L7.56066017,22.4099026 C6.97487373,22.995689 6.02512627,22.995689 5.43933983,22.4099026 C4.85355339,21.8241161 4.85355339,20.8743687 5.43933983,20.2885822 L11.803,13.924 L5.43933983,7.56066017 C4.85355339,6.97487373 4.85355339,6.02512627 5.43933983,5.43933983 C6.02512627,4.85355339 6.97487373,4.85355339 7.56066017,5.43933983 L13.924,11.803 L20.2885822,5.43933983 C20.8743687,4.85355339 21.8241161,4.85355339 22.4099026,5.43933983 Z" id="dismiss-large-dark_ðŸŽ¨-Icon-Color" />
    </g>
  </svg><svg viewBox="0 0 28 28" id="dismiss-large-light" class="sprite-symbol-usage">
    <g id="dismiss-large-light_â­ï¸-Icons-(Icon-font)" stroke="none" strokeWidth="1" fillRule="evenodd" fill="#4d4d4d">
      <path d="M22.4099026,5.43933983 C22.995689,6.02512627 22.995689,6.97487373 22.4099026,7.56066017 L16.045,13.924 L22.4099026,20.2885822 C22.995689,20.8743687 22.995689,21.8241161 22.4099026,22.4099026 C21.8241161,22.995689 20.8743687,22.995689 20.2885822,22.4099026 L13.924,16.045 L7.56066017,22.4099026 C6.97487373,22.995689 6.02512627,22.995689 5.43933983,22.4099026 C4.85355339,21.8241161 4.85355339,20.8743687 5.43933983,20.2885822 L11.803,13.924 L5.43933983,7.56066017 C4.85355339,6.97487373 4.85355339,6.02512627 5.43933983,5.43933983 C6.02512627,4.85355339 6.97487373,4.85355339 7.56066017,5.43933983 L13.924,11.803 L20.2885822,5.43933983 C20.8743687,4.85355339 21.8241161,4.85355339 22.4099026,5.43933983 Z" id="dismiss-large-light_ðŸŽ¨-Icon-Color" />
    </g>
  </svg><svg viewBox="0 0 32 32" fill="#FFFFFF" id="e-trusted-black-dark" class="sprite-symbol-usage">
    <path d="M0 16c0-8.837 7.163-16 16-16s16 7.163 16 16c0 8.837-7.163 16-16 16s-16-7.163-16-16zM16 26.080c5.567 0 10.080-4.513 10.080-10.080s-4.513-10.080-10.080-10.080c-5.567 0-10.080 4.513-10.080 10.080s4.513 10.080 10.080 10.080zM20.25 19.114c-1.466 2.17-3.52 4.16-6.246 4.16-2.899 0-4.589-1.818-4.589-4.749 0-4.749 3.52-9.402 8.448-9.402 1.658-0.016 3.898 0.653 3.898 2.662 0 3.6-5.642 4.8-8.416 5.514-0.105 0.536-0.174 1.163-0.192 1.802-0 1.258 0.668 2.406 2.038 2.406 1.786 0 3.219-1.722 4.272-2.995zM18.72 11.37c0-0.733-0.413-1.306-1.178-1.306-2.294 0-3.475 4.461-3.92 6.214 2.131-0.637 5.098-2.39 5.098-4.909z" />
  </svg><svg viewBox="0 0 32 32" fill="black" id="e-trusted-black-light" class="sprite-symbol-usage">
    <path d="M0 16c0-8.837 7.163-16 16-16s16 7.163 16 16c0 8.837-7.163 16-16 16s-16-7.163-16-16zM16 26.080c5.567 0 10.080-4.513 10.080-10.080s-4.513-10.080-10.080-10.080c-5.567 0-10.080 4.513-10.080 10.080s4.513 10.080 10.080 10.080zM20.25 19.114c-1.466 2.17-3.52 4.16-6.246 4.16-2.899 0-4.589-1.818-4.589-4.749 0-4.749 3.52-9.402 8.448-9.402 1.658-0.016 3.898 0.653 3.898 2.662 0 3.6-5.642 4.8-8.416 5.514-0.105 0.536-0.174 1.163-0.192 1.802-0 1.258 0.668 2.406 2.038 2.406 1.786 0 3.219-1.722 4.272-2.995zM18.72 11.37c0-0.733-0.413-1.306-1.178-1.306-2.294 0-3.475 4.461-3.92 6.214 2.131-0.637 5.098-2.39 5.098-4.909z" />
  </svg><svg viewBox="0 0 32 32" fill="#878787" id="e-trusted-gray" class="sprite-symbol-usage">
    <path d="M0 16c0-8.837 7.163-16 16-16s16 7.163 16 16c0 8.837-7.163 16-16 16s-16-7.163-16-16zM16 26.080c5.567 0 10.080-4.513 10.080-10.080s-4.513-10.080-10.080-10.080c-5.567 0-10.080 4.513-10.080 10.080s4.513 10.080 10.080 10.080zM20.25 19.114c-1.466 2.17-3.52 4.16-6.246 4.16-2.899 0-4.589-1.818-4.589-4.749 0-4.749 3.52-9.402 8.448-9.402 1.658-0.016 3.898 0.653 3.898 2.662 0 3.6-5.642 4.8-8.416 5.514-0.105 0.536-0.174 1.163-0.192 1.802-0 1.258 0.668 2.406 2.038 2.406 1.786 0 3.219-1.722 4.272-2.995zM18.72 11.37c0-0.733-0.413-1.306-1.178-1.306-2.294 0-3.475 4.461-3.92 6.214 2.131-0.637 5.098-2.39 5.098-4.909z" />
  </svg><svg viewBox="0 0 10 3" fill="none" id="ellipsis-dark" class="sprite-symbol-usage">
    <path fill-rule="evenodd" clip-rule="evenodd" d="M9.71428 1.21431C9.71428 1.80605 9.21174 2.28574 8.59183 2.28574C7.97192 2.28574 7.46938 1.80605 7.46938 1.21431C7.46938 0.622578 7.97192 0.142883 8.59183 0.142883C9.21174 0.142883 9.71428 0.622578 9.71428 1.21431ZM6.12244 1.21431C6.12244 1.80605 5.6199 2.28574 4.99999 2.28574C4.38008 2.28574 3.87754 1.80605 3.87754 1.21431C3.87754 0.622578 4.38008 0.142883 4.99999 0.142883C5.29769 0.142878 5.58319 0.255757 5.7937 0.45669C6.0042 0.657622 6.12246 0.930148 6.12246 1.21431H6.12244ZM1.40815 0.142883C2.02807 0.142883 2.5306 0.622578 2.5306 1.21431C2.5306 1.80605 2.02807 2.28574 1.40815 2.28574C0.788243 2.28574 0.285706 1.80605 0.285706 1.21431C0.285718 0.622595 0.788238 0.142917 1.40813 0.142905L1.40815 0.142883Z" fill="#CCCCCC" />
  </svg><svg viewBox="0 0 10 3" fill="none" id="ellipsis-light" class="sprite-symbol-usage">
    <path fill-rule="evenodd" clip-rule="evenodd" d="M9.71428 1.21431C9.71428 1.80605 9.21174 2.28574 8.59183 2.28574C7.97192 2.28574 7.46938 1.80605 7.46938 1.21431C7.46938 0.622578 7.97192 0.142883 8.59183 0.142883C9.21174 0.142883 9.71428 0.622578 9.71428 1.21431ZM6.12244 1.21431C6.12244 1.80605 5.6199 2.28574 4.99999 2.28574C4.38008 2.28574 3.87754 1.80605 3.87754 1.21431C3.87754 0.622578 4.38008 0.142883 4.99999 0.142883C5.29769 0.142878 5.58319 0.255757 5.7937 0.45669C6.0042 0.657622 6.12246 0.930148 6.12246 1.21431H6.12244ZM1.40815 0.142883C2.02807 0.142883 2.5306 0.622578 2.5306 1.21431C2.5306 1.80605 2.02807 2.28574 1.40815 2.28574C0.788243 2.28574 0.285706 1.80605 0.285706 1.21431C0.285718 0.622595 0.788238 0.142917 1.40813 0.142905L1.40815 0.142883Z" fill="#4d4d4d" />
  </svg><svg viewBox="0 0 18 18" id="external-link-blue-dark" class="sprite-symbol-usage">
    <g id="external-link-blue-dark_Symbols" stroke="none" strokeWidth="1" fillRule="evenodd" fill="#7FBDF0">
      <g id="external-link-blue-dark_ðŸŽ¨-Icon-Color" transform="translate(-5.000000, -5.000000)">
        <path d="M22.1665562,12.0754768 C21.9457157,12.075698 21.7338331,11.9880783 21.577523,11.8318942 C21.421213,11.6757102 21.3332804,11.4637564 21.3330707,11.2426632 L21.3330707,7.84943057 L14.4120606,14.7589777 C14.20216,14.9677858 13.8969334,15.0486236 13.6113567,14.9710404 C13.32578,14.8934571 13.1032391,14.6692396 13.027563,14.3828483 C12.9518869,14.0964571 13.0345726,13.7914018 13.2444732,13.5825937 L20.1731437,6.66562747 L16.7459448,6.66562747 C16.2865202,6.66562747 15.914083,6.29276415 15.914083,5.83281394 C15.914083,5.37286373 16.2865202,5 16.7459448,5 L22.1665145,5 C22.3873478,4.99977922 22.5992241,5.08739319 22.755533,5.24356823 C22.9118419,5.39974327 22.9997793,5.61168632 23,5.83277226 L23,11.2426632 C22.9997903,11.4637492 22.9118635,11.6756966 22.7555624,11.8318795 C22.5992614,11.9880623 22.3873895,12.0756869 22.1665562,12.0754768 Z M12,10.5556204 L7.33333333,10.5556204 C6.90390075,10.5561347 6.55594127,10.9041 6.55555556,11.3334111 L6.55555556,20.6665112 C6.55589848,21.09584 6.90388299,21.4438303 7.33333333,21.4443019 L16.6666667,21.4443019 C17.0960726,21.4437234 17.4439946,21.0957956 17.4444444,20.6665112 L17.4444444,16.0011663 C17.4444444,15.5717332 17.7926674,15.2236089 18.2222222,15.2236089 C18.651777,15.2236089 19,15.5717332 19,16.0011663 L19,20.6665112 C18.9988002,21.9544456 17.9549655,22.9983498 16.6666667,23 L7.33333333,23 C6.04504334,22.9983284 5.0012212,21.9544367 5,20.6665112 L5,11.3334111 C5.0011999,10.0454893 6.04504704,9.00160733 7.33333333,9 L12,9 C12.4275479,9.00302189 12.7725494,9.35037272 12.7725494,9.77781018 C12.7725494,10.2052476 12.4275479,10.5525985 12,10.5556204 Z" />
      </g>
    </g>
  </svg><svg viewBox="0 0 18 18" id="external-link-blue-light" class="sprite-symbol-usage">
    <g id="external-link-blue-light_Symbols" stroke="none" strokeWidth="1" fillRule="evenodd" fill="#005AA0">
      <g id="external-link-blue-light_ðŸŽ¨-Icon-Color" transform="translate(-5.000000, -5.000000)">
        <path d="M22.1665562,12.0754768 C21.9457157,12.075698 21.7338331,11.9880783 21.577523,11.8318942 C21.421213,11.6757102 21.3332804,11.4637564 21.3330707,11.2426632 L21.3330707,7.84943057 L14.4120606,14.7589777 C14.20216,14.9677858 13.8969334,15.0486236 13.6113567,14.9710404 C13.32578,14.8934571 13.1032391,14.6692396 13.027563,14.3828483 C12.9518869,14.0964571 13.0345726,13.7914018 13.2444732,13.5825937 L20.1731437,6.66562747 L16.7459448,6.66562747 C16.2865202,6.66562747 15.914083,6.29276415 15.914083,5.83281394 C15.914083,5.37286373 16.2865202,5 16.7459448,5 L22.1665145,5 C22.3873478,4.99977922 22.5992241,5.08739319 22.755533,5.24356823 C22.9118419,5.39974327 22.9997793,5.61168632 23,5.83277226 L23,11.2426632 C22.9997903,11.4637492 22.9118635,11.6756966 22.7555624,11.8318795 C22.5992614,11.9880623 22.3873895,12.0756869 22.1665562,12.0754768 Z M12,10.5556204 L7.33333333,10.5556204 C6.90390075,10.5561347 6.55594127,10.9041 6.55555556,11.3334111 L6.55555556,20.6665112 C6.55589848,21.09584 6.90388299,21.4438303 7.33333333,21.4443019 L16.6666667,21.4443019 C17.0960726,21.4437234 17.4439946,21.0957956 17.4444444,20.6665112 L17.4444444,16.0011663 C17.4444444,15.5717332 17.7926674,15.2236089 18.2222222,15.2236089 C18.651777,15.2236089 19,15.5717332 19,16.0011663 L19,20.6665112 C18.9988002,21.9544456 17.9549655,22.9983498 16.6666667,23 L7.33333333,23 C6.04504334,22.9983284 5.0012212,21.9544367 5,20.6665112 L5,11.3334111 C5.0011999,10.0454893 6.04504704,9.00160733 7.33333333,9 L12,9 C12.4275479,9.00302189 12.7725494,9.35037272 12.7725494,9.77781018 C12.7725494,10.2052476 12.4275479,10.5525985 12,10.5556204 Z" />
      </g>
    </g>
  </svg><svg viewBox="0 0 18 18" id="external-link-white-dark" class="sprite-symbol-usage">
    <g id="external-link-white-dark_Symbols" stroke="none" strokeWidth="1" fillRule="evenodd" fill="black">
      <g id="external-link-white-dark_ðŸŽ¨-Icon-Color" transform="translate(-5.000000, -5.000000)">
        <path d="M22.1665562,12.0754768 C21.9457157,12.075698 21.7338331,11.9880783 21.577523,11.8318942 C21.421213,11.6757102 21.3332804,11.4637564 21.3330707,11.2426632 L21.3330707,7.84943057 L14.4120606,14.7589777 C14.20216,14.9677858 13.8969334,15.0486236 13.6113567,14.9710404 C13.32578,14.8934571 13.1032391,14.6692396 13.027563,14.3828483 C12.9518869,14.0964571 13.0345726,13.7914018 13.2444732,13.5825937 L20.1731437,6.66562747 L16.7459448,6.66562747 C16.2865202,6.66562747 15.914083,6.29276415 15.914083,5.83281394 C15.914083,5.37286373 16.2865202,5 16.7459448,5 L22.1665145,5 C22.3873478,4.99977922 22.5992241,5.08739319 22.755533,5.24356823 C22.9118419,5.39974327 22.9997793,5.61168632 23,5.83277226 L23,11.2426632 C22.9997903,11.4637492 22.9118635,11.6756966 22.7555624,11.8318795 C22.5992614,11.9880623 22.3873895,12.0756869 22.1665562,12.0754768 Z M12,10.5556204 L7.33333333,10.5556204 C6.90390075,10.5561347 6.55594127,10.9041 6.55555556,11.3334111 L6.55555556,20.6665112 C6.55589848,21.09584 6.90388299,21.4438303 7.33333333,21.4443019 L16.6666667,21.4443019 C17.0960726,21.4437234 17.4439946,21.0957956 17.4444444,20.6665112 L17.4444444,16.0011663 C17.4444444,15.5717332 17.7926674,15.2236089 18.2222222,15.2236089 C18.651777,15.2236089 19,15.5717332 19,16.0011663 L19,20.6665112 C18.9988002,21.9544456 17.9549655,22.9983498 16.6666667,23 L7.33333333,23 C6.04504334,22.9983284 5.0012212,21.9544367 5,20.6665112 L5,11.3334111 C5.0011999,10.0454893 6.04504704,9.00160733 7.33333333,9 L12,9 C12.4275479,9.00302189 12.7725494,9.35037272 12.7725494,9.77781018 C12.7725494,10.2052476 12.4275479,10.5525985 12,10.5556204 Z" />
      </g>
    </g>
  </svg><svg viewBox="0 0 18 18" id="external-link-white-light" class="sprite-symbol-usage">
    <g id="external-link-white-light_Symbols" stroke="none" strokeWidth="1" fillRule="evenodd" fill="white">
      <g id="external-link-white-light_ðŸŽ¨-Icon-Color" transform="translate(-5.000000, -5.000000)">
        <path d="M22.1665562,12.0754768 C21.9457157,12.075698 21.7338331,11.9880783 21.577523,11.8318942 C21.421213,11.6757102 21.3332804,11.4637564 21.3330707,11.2426632 L21.3330707,7.84943057 L14.4120606,14.7589777 C14.20216,14.9677858 13.8969334,15.0486236 13.6113567,14.9710404 C13.32578,14.8934571 13.1032391,14.6692396 13.027563,14.3828483 C12.9518869,14.0964571 13.0345726,13.7914018 13.2444732,13.5825937 L20.1731437,6.66562747 L16.7459448,6.66562747 C16.2865202,6.66562747 15.914083,6.29276415 15.914083,5.83281394 C15.914083,5.37286373 16.2865202,5 16.7459448,5 L22.1665145,5 C22.3873478,4.99977922 22.5992241,5.08739319 22.755533,5.24356823 C22.9118419,5.39974327 22.9997793,5.61168632 23,5.83277226 L23,11.2426632 C22.9997903,11.4637492 22.9118635,11.6756966 22.7555624,11.8318795 C22.5992614,11.9880623 22.3873895,12.0756869 22.1665562,12.0754768 Z M12,10.5556204 L7.33333333,10.5556204 C6.90390075,10.5561347 6.55594127,10.9041 6.55555556,11.3334111 L6.55555556,20.6665112 C6.55589848,21.09584 6.90388299,21.4438303 7.33333333,21.4443019 L16.6666667,21.4443019 C17.0960726,21.4437234 17.4439946,21.0957956 17.4444444,20.6665112 L17.4444444,16.0011663 C17.4444444,15.5717332 17.7926674,15.2236089 18.2222222,15.2236089 C18.651777,15.2236089 19,15.5717332 19,16.0011663 L19,20.6665112 C18.9988002,21.9544456 17.9549655,22.9983498 16.6666667,23 L7.33333333,23 C6.04504334,22.9983284 5.0012212,21.9544367 5,20.6665112 L5,11.3334111 C5.0011999,10.0454893 6.04504704,9.00160733 7.33333333,9 L12,9 C12.4275479,9.00302189 12.7725494,9.35037272 12.7725494,9.77781018 C12.7725494,10.2052476 12.4275479,10.5525985 12,10.5556204 Z" />
      </g>
    </g>
  </svg><svg viewBox="0 0 34 40" id="shield-simplified" class="sprite-symbol-usage">
    <title>Shield simplified</title>
    <defs>
      <path d="M15.8506742,0 C15.8627919,0 17.2292221,0.00639016368 18.3129807,1.44239369 C23.576594,7.18024055 31.1208225,2.8305453 31.6877816,8.75905681 C32.0505767,12.2470459 32.1543479,15.8136489 31.6877816,18.8558126 C31.2211419,21.8978278 29.6400457,34.852993 15.8506008,38 C7.5202673,36.1037561 -1.23168695,28.8128765 0.143556146,9.4670275 C0.10309054,3.1222637 9.23781564,6.06827776 12.5327882,2.38628031 C13.8288627,0.970264621 14.7619952,0.13107266 15.8506742,0" id="shield-simplified_path-1" />
      <path d="M16,12 C20.418278,12 24,15.7132811 24,20.2938456 C24,20.5316289 23.990348,20.767075 23.9714281,20.9997859 C23.6257759,16.7492683 20.1888548,13.4116062 16,13.4116062 C11.8111452,13.4116062 8.37422407,16.7492683 8.02858787,20.9993154 C8.00965198,20.767075 8,20.5316289 8,20.2938456 C8,15.7132811 11.581722,12 16,12 Z" id="shield-simplified_path-3" />
    </defs>
    <g id="shield-simplified_Symbols" stroke="none" stroke-width="1" fill="none" fill-rule="evenodd">
      <g id="shield-simplified_trustbadge/maximised/sub-page/guarantee" transform="translate(-29.000000, -61.000000)">
        <g id="shield-simplified_Reviews-box" transform="translate(15.000000, 50.000000)">
          <g id="shield-simplified_Shield-simplified" transform="translate(15.000000, 12.000000)">
            <mask id="shield-simplified_mask-2" fill="white">
              <use xlink:href="#shield-simplified_path-1" />
            </mask>
            <use id="shield-simplified_Shield" stroke="#45413C" fill="#2277BC" stroke-linecap="round" stroke-linejoin="round" xlink:href="#shield-simplified_path-1" />
            <path d="M18.1607666,1.39416012 C20.0370472,3.51993155 22.2222502,4.22554528 24.2398428,4.60052129 L24.5569477,4.65713919 L24.5569477,4.65713919 L24.87085,4.7092148 L24.87085,4.7092148 L25.1811328,4.75770119 L25.1811328,4.75770119 L26.3777323,4.93481597 L26.3777323,4.93481597 L26.6636649,4.97965234 L26.6636649,4.97965234 L26.9434769,5.02661791 L26.9434769,5.02661791 L27.2167515,5.07666577 C29.10582,5.4400126 30.4837474,6.09995798 30.7071207,8.5275683 C31.0357087,11.8109333 31.1377852,15.1657486 30.7505001,18.0628141 L30.6152089,19.0026831 L30.6152089,19.0026831 L30.5566848,19.388288 L30.5566848,19.388288 L30.5118824,19.6691867 L30.5118824,19.6691867 L30.4618748,19.9680844 L30.4618748,19.9680844 L30.4061683,20.2840688 L30.4061683,20.2840688 L30.3442693,20.6162276 C30.3334093,20.6728846 30.3222708,20.7301775 30.3108433,20.7880873 L30.2387296,21.1427974 C30.2134814,21.2634004 30.1869953,21.3863191 30.1591891,21.5114014 L30.0717278,21.8929871 C28.9116369,26.8047717 25.7264843,34.6212792 16.0009232,37 L16,0 L16.071158,0.0103264612 L16.071158,0.0103264612 L16.1540836,0.025299153 L16.1540836,0.025299153 L16.2478219,0.0457809031 L16.2478219,0.0457809031 L16.351418,0.0726345394 C16.8203138,0.204052357 17.5399765,0.539247953 18.1607666,1.39416012 Z" id="shield-simplified_Shadow-Shield" fill="#005AA0" />
            <circle id="shield-simplified_Circle-shadow" fill-opacity="0.15" fill="#000000" fill-rule="nonzero" cx="15.5" cy="21.5" r="8.5" />
            <circle id="shield-simplified_Circle" stroke="#45413C" fill="#E6E6E6" fill-rule="nonzero" cx="16" cy="20" r="8.5" />
            <mask id="shield-simplified_mask-4" fill="white">
              <use xlink:href="#shield-simplified_path-3" />
            </mask>
            <use id="shield-simplified_Circle-shine" fill="#FFFFFF" fill-rule="nonzero" xlink:href="#shield-simplified_path-3" />
            <path d="M15.9802805,20.8568287 L11.2012477,18.3505812 C10.872686,18.1789069 10.4640374,18.2438382 10.2119689,18.509466 C9.94501255,18.789359 9.92858446,19.2128877 10.1719255,19.511965 L15.1188328,25.582544 C15.3395852,25.8530909 15.680468,26.0080404 16.0388056,25.9996781 C16.379175,25.9913157 16.6974692,25.836858 16.9064139,25.5791007 L26.8043355,13.4290883 C27.1210895,13.0404847 27.0451096,12.479223 26.6354343,12.1801458 C26.2750431,11.9179613 25.7688527,11.9445241 25.4408044,12.2431094 L15.9802805,20.8568287 Z" id="shield-simplified_Check-shadow" fill-opacity="0.15" fill="#000000" />
            <path d="M15.9802805,18.8568287 L11.2012477,16.3505812 C10.872686,16.1789069 10.4640374,16.2438382 10.2119689,16.509466 C9.94501255,16.789359 9.92858446,17.2128877 10.1719255,17.511965 L15.1188328,23.582544 C15.3395852,23.8530909 15.680468,24.0080404 16.0388056,23.9996781 C16.379175,23.9913157 16.6974692,23.836858 16.9064139,23.5791007 L26.8043355,11.4290883 C27.1210895,11.0404847 27.0451096,10.479223 26.6354343,10.1801458 C26.2750431,9.91796127 25.7688527,9.94452405 25.4408044,10.2431094 L15.9802805,18.8568287 Z" id="shield-simplified_Check" stroke="#45413C" fill="#FFDC0F" />
            <path d="M25.0099035,11.2507065 C25.2795451,10.9956649 25.670468,10.9330769 26,11.0727434 C25.9741579,11.1414796 25.9465353,11.1955686 25.9172346,11.2329243 L25.8480221,11.3153275 L25.8480221,11.3153275 L25.3994329,11.8215786 L25.3994329,11.8215786 L24.0294255,13.3399467 L24.0294255,13.3399467 L18.4285308,19.4961784 L18.4285308,19.4961784 L16.540695,21.5659476 L16.540695,21.5659476 C16.3333461,21.8317599 16.0174829,21.9910443 15.6797131,21.999668 C15.3241123,22.0082917 14.9858331,21.8484999 14.7667667,21.5694985 L12.2125925,19.4643587 L12.2125925,19.4643587 L10.5494298,18.0807052 L10.5494298,18.0807052 L10,17.6186663 L10,17.6186663 C10.232701,17.4387311 10.5488944,17.3994004 10.821419,17.5206009 L10.8791024,17.5490369 L15.6216351,20.1336046 L25.0099035,11.2507065 Z" id="shield-simplified_Check-shine" fill="#FFEE58" />
          </g>
        </g>
      </g>
    </g>
  </svg><svg viewBox="0 0 34 32" id="star-gray" class="sprite-symbol-usage">
    <g id="star-gray_â­ï¸-Brand-Elements" fill="lightgray">
      <polygon id="star-gray_â­ï¸-Star-State" points="16.9973404 0 12.9840426 12.2184211 0 12.2236842 10.5053191 19.7763158 6.49734043 32 16.9973404 24.4473684 27.5053191 32 23.4946809 19.7763158 34 12.2236842 21.0159574 12.2184211" />
    </g>
  </svg><svg viewBox="0 0 34 32" id="star-yellow" class="sprite-symbol-usage">
    <g id="star-yellow_â­ï¸-Brand-Elements" fill="#FFDC0F">
      <polygon id="star-yellow_â­ï¸-Star-State" points="16.9973404 0 12.9840426 12.2184211 0 12.2236842 10.5053191 19.7763158 6.49734043 32 16.9973404 24.4473684 27.5053191 32 23.4946809 19.7763158 34 12.2236842 21.0159574 12.2184211" />
    </g>
  </svg><svg viewBox="0 0 77 32" fill="#FFFFFF" id="trusted-shops-dark" class="sprite-symbol-usage">
    <path d="M13.201 26.533c-7.291 0-13.201-5.91-13.201-13.201s5.91-13.201 13.201-13.201c7.291 0 13.201 5.91 13.201 13.201s-5.91 13.201-13.201 13.201zM13.201 21.663c4.601 0 8.331-3.73 8.331-8.331s-3.73-8.331-8.331-8.331c-4.601 0-8.331 3.73-8.331 8.331s3.73 8.331 8.331 8.331zM16.698 15.883c-1.21 1.788-2.893 3.418-5.154 3.418-2.393 0-3.787-1.499-3.787-3.918 0-3.918 2.893-7.757 6.968-7.757 1.367 0 3.208 0.552 3.208 2.209 0 2.971-4.654 3.971-6.942 4.549-0.079 0.5-0.158 0.999-0.158 1.499 0 1.026 0.552 1.972 1.683 1.972 1.473 0 2.656-1.42 3.524-2.472l0.657 0.5zM15.436 9.519c0-0.605-0.342-1.078-0.973-1.078-1.893 0-2.866 3.681-3.234 5.128 1.762-0.526 4.207-1.972 4.207-4.050zM30.951 15.015h-2.183v-1.551h6.232v1.551h-2.209v6.574h-1.841zM35.71 13.569c0.578-0.105 1.473-0.158 2.446-0.158 1.21 0 2.051 0.184 2.63 0.631 0.473 0.394 0.736 0.947 0.736 1.709 0 1.026-0.736 1.736-1.42 1.998v0.026c0.578 0.237 0.868 0.763 1.078 1.525 0.263 0.92 0.5 1.972 0.657 2.288h-1.867c-0.131-0.237-0.316-0.894-0.578-1.893-0.21-0.999-0.578-1.288-1.315-1.288h-0.552v3.182h-1.814v-8.020zM37.525 17.066h0.71c0.92 0 1.446-0.447 1.446-1.157 0-0.736-0.5-1.131-1.341-1.131-0.447 0-0.71 0.026-0.841 0.053v2.235h0.026zM44.414 13.464v4.681c0 1.394 0.526 2.104 1.473 2.104 0.973 0 1.499-0.684 1.499-2.104v-4.681h1.841v4.549c0 2.498-1.262 3.708-3.392 3.708-2.051 0-3.261-1.131-3.261-3.734v-4.523h1.841zM50.515 19.696c0.5 0.263 1.262 0.5 2.025 0.5 0.841 0 1.288-0.342 1.288-0.868 0-0.5-0.394-0.789-1.367-1.157-1.341-0.473-2.235-1.21-2.235-2.393 0-1.394 1.157-2.446 3.077-2.446 0.92 0 1.578 0.184 2.077 0.421l-0.421 1.473c-0.316-0.158-0.894-0.394-1.709-0.394-0.789 0-1.183 0.368-1.183 0.789 0 0.526 0.447 0.736 1.499 1.157 1.42 0.526 2.104 1.288 2.104 2.419 0 1.367-1.052 2.524-3.287 2.524-0.92 0-1.841-0.237-2.288-0.5l0.421-1.525zM58.272 15.015h-2.183v-1.551h6.232v1.551h-2.209v6.574h-1.841zM67.844 18.144h-2.998v1.92h3.34v1.499h-5.18v-8.099h4.996v1.525h-3.156v1.683h2.998zM69.343 13.569c0.684-0.105 1.551-0.158 2.472-0.158 1.551 0 2.551 0.289 3.313 0.868 0.841 0.631 1.367 1.63 1.367 3.050 0 1.551-0.579 2.63-1.341 3.287-0.868 0.71-2.156 1.052-3.734 1.052-0.947 0-1.63-0.053-2.077-0.131v-7.968zM71.184 20.195c0.158 0.026 0.421 0.026 0.631 0.026 1.657 0.026 2.735-0.894 2.735-2.84 0.026-1.683-0.973-2.577-2.551-2.577-0.421 0-0.684 0.026-0.841 0.079v5.312h0.026zM29.478 29.662c0.5 0.263 1.236 0.5 2.025 0.5 0.841 0 1.288-0.342 1.288-0.868 0-0.5-0.394-0.789-1.341-1.131-1.341-0.473-2.209-1.21-2.209-2.393 0-1.367 1.157-2.419 3.050-2.419 0.92 0 1.578 0.184 2.051 0.394l-0.394 1.473c-0.316-0.158-0.894-0.394-1.683-0.394s-1.183 0.368-1.183 0.789c0 0.526 0.447 0.736 1.499 1.131 1.42 0.526 2.104 1.262 2.104 2.419 0 1.341-1.052 2.498-3.261 2.498-0.92 0-1.841-0.237-2.288-0.5l0.342-1.499zM37.472 23.482v3.103h3.024v-3.103h1.814v8.073h-1.814v-3.366h-2.998v3.366h-1.841v-8.073zM51.12 27.427c0 2.656-1.604 4.26-3.971 4.26-2.393 0-3.787-1.814-3.787-4.102 0-2.419 1.551-4.234 3.918-4.234 2.472 0 3.839 1.841 3.839 4.076zM45.282 27.532c0 1.578 0.736 2.709 1.972 2.709s1.946-1.183 1.946-2.735c0-1.446-0.684-2.709-1.946-2.709s-1.972 1.157-1.972 2.735zM52.145 23.588c0.552-0.105 1.341-0.158 2.472-0.158s1.92 0.21 2.472 0.657c0.526 0.394 0.868 1.078 0.868 1.867s-0.263 1.473-0.736 1.92c-0.631 0.579-1.551 0.841-2.63 0.841-0.237 0-0.447-0.026-0.631-0.026v2.893h-1.814v-7.994zM53.96 27.243c0.158 0.026 0.342 0.053 0.605 0.053 0.973 0 1.578-0.5 1.578-1.315 0-0.736-0.526-1.183-1.42-1.183-0.368 0-0.631 0.026-0.763 0.079v2.367zM58.903 29.662c0.5 0.263 1.236 0.5 2.025 0.5 0.841 0 1.288-0.342 1.288-0.868 0-0.5-0.394-0.789-1.341-1.131-1.341-0.473-2.209-1.21-2.209-2.393 0-1.367 1.157-2.419 3.050-2.419 0.92 0 1.578 0.184 2.051 0.394l-0.394 1.473c-0.316-0.158-0.894-0.394-1.683-0.394s-1.183 0.368-1.183 0.789c0 0.526 0.447 0.736 1.499 1.131 1.42 0.526 2.104 1.262 2.104 2.419 0 1.341-1.052 2.498-3.261 2.498-0.92 0-1.841-0.237-2.288-0.5l0.342-1.499z" />
  </svg><svg viewBox="0 0 77 32" id="trusted-shops-light" class="sprite-symbol-usage">
    <path d="M13.201 26.533c-7.291 0-13.201-5.91-13.201-13.201s5.91-13.201 13.201-13.201c7.291 0 13.201 5.91 13.201 13.201s-5.91 13.201-13.201 13.201zM13.201 21.663c4.601 0 8.331-3.73 8.331-8.331s-3.73-8.331-8.331-8.331c-4.601 0-8.331 3.73-8.331 8.331s3.73 8.331 8.331 8.331zM16.698 15.883c-1.21 1.788-2.893 3.418-5.154 3.418-2.393 0-3.787-1.499-3.787-3.918 0-3.918 2.893-7.757 6.968-7.757 1.367 0 3.208 0.552 3.208 2.209 0 2.971-4.654 3.971-6.942 4.549-0.079 0.5-0.158 0.999-0.158 1.499 0 1.026 0.552 1.972 1.683 1.972 1.473 0 2.656-1.42 3.524-2.472l0.657 0.5zM15.436 9.519c0-0.605-0.342-1.078-0.973-1.078-1.893 0-2.866 3.681-3.234 5.128 1.762-0.526 4.207-1.972 4.207-4.050zM30.951 15.015h-2.183v-1.551h6.232v1.551h-2.209v6.574h-1.841zM35.71 13.569c0.578-0.105 1.473-0.158 2.446-0.158 1.21 0 2.051 0.184 2.63 0.631 0.473 0.394 0.736 0.947 0.736 1.709 0 1.026-0.736 1.736-1.42 1.998v0.026c0.578 0.237 0.868 0.763 1.078 1.525 0.263 0.92 0.5 1.972 0.657 2.288h-1.867c-0.131-0.237-0.316-0.894-0.578-1.893-0.21-0.999-0.578-1.288-1.315-1.288h-0.552v3.182h-1.814v-8.020zM37.525 17.066h0.71c0.92 0 1.446-0.447 1.446-1.157 0-0.736-0.5-1.131-1.341-1.131-0.447 0-0.71 0.026-0.841 0.053v2.235h0.026zM44.414 13.464v4.681c0 1.394 0.526 2.104 1.473 2.104 0.973 0 1.499-0.684 1.499-2.104v-4.681h1.841v4.549c0 2.498-1.262 3.708-3.392 3.708-2.051 0-3.261-1.131-3.261-3.734v-4.523h1.841zM50.515 19.696c0.5 0.263 1.262 0.5 2.025 0.5 0.841 0 1.288-0.342 1.288-0.868 0-0.5-0.394-0.789-1.367-1.157-1.341-0.473-2.235-1.21-2.235-2.393 0-1.394 1.157-2.446 3.077-2.446 0.92 0 1.578 0.184 2.077 0.421l-0.421 1.473c-0.316-0.158-0.894-0.394-1.709-0.394-0.789 0-1.183 0.368-1.183 0.789 0 0.526 0.447 0.736 1.499 1.157 1.42 0.526 2.104 1.288 2.104 2.419 0 1.367-1.052 2.524-3.287 2.524-0.92 0-1.841-0.237-2.288-0.5l0.421-1.525zM58.272 15.015h-2.183v-1.551h6.232v1.551h-2.209v6.574h-1.841zM67.844 18.144h-2.998v1.92h3.34v1.499h-5.18v-8.099h4.996v1.525h-3.156v1.683h2.998zM69.343 13.569c0.684-0.105 1.551-0.158 2.472-0.158 1.551 0 2.551 0.289 3.313 0.868 0.841 0.631 1.367 1.63 1.367 3.050 0 1.551-0.579 2.63-1.341 3.287-0.868 0.71-2.156 1.052-3.734 1.052-0.947 0-1.63-0.053-2.077-0.131v-7.968zM71.184 20.195c0.158 0.026 0.421 0.026 0.631 0.026 1.657 0.026 2.735-0.894 2.735-2.84 0.026-1.683-0.973-2.577-2.551-2.577-0.421 0-0.684 0.026-0.841 0.079v5.312h0.026zM29.478 29.662c0.5 0.263 1.236 0.5 2.025 0.5 0.841 0 1.288-0.342 1.288-0.868 0-0.5-0.394-0.789-1.341-1.131-1.341-0.473-2.209-1.21-2.209-2.393 0-1.367 1.157-2.419 3.050-2.419 0.92 0 1.578 0.184 2.051 0.394l-0.394 1.473c-0.316-0.158-0.894-0.394-1.683-0.394s-1.183 0.368-1.183 0.789c0 0.526 0.447 0.736 1.499 1.131 1.42 0.526 2.104 1.262 2.104 2.419 0 1.341-1.052 2.498-3.261 2.498-0.92 0-1.841-0.237-2.288-0.5l0.342-1.499zM37.472 23.482v3.103h3.024v-3.103h1.814v8.073h-1.814v-3.366h-2.998v3.366h-1.841v-8.073zM51.12 27.427c0 2.656-1.604 4.26-3.971 4.26-2.393 0-3.787-1.814-3.787-4.102 0-2.419 1.551-4.234 3.918-4.234 2.472 0 3.839 1.841 3.839 4.076zM45.282 27.532c0 1.578 0.736 2.709 1.972 2.709s1.946-1.183 1.946-2.735c0-1.446-0.684-2.709-1.946-2.709s-1.972 1.157-1.972 2.735zM52.145 23.588c0.552-0.105 1.341-0.158 2.472-0.158s1.92 0.21 2.472 0.657c0.526 0.394 0.868 1.078 0.868 1.867s-0.263 1.473-0.736 1.92c-0.631 0.579-1.551 0.841-2.63 0.841-0.237 0-0.447-0.026-0.631-0.026v2.893h-1.814v-7.994zM53.96 27.243c0.158 0.026 0.342 0.053 0.605 0.053 0.973 0 1.578-0.5 1.578-1.315 0-0.736-0.526-1.183-1.42-1.183-0.368 0-0.631 0.026-0.763 0.079v2.367zM58.903 29.662c0.5 0.263 1.236 0.5 2.025 0.5 0.841 0 1.288-0.342 1.288-0.868 0-0.5-0.394-0.789-1.341-1.131-1.341-0.473-2.209-1.21-2.209-2.393 0-1.367 1.157-2.419 3.050-2.419 0.92 0 1.578 0.184 2.051 0.394l-0.394 1.473c-0.316-0.158-0.894-0.394-1.683-0.394s-1.183 0.368-1.183 0.789c0 0.526 0.447 0.736 1.499 1.131 1.42 0.526 2.104 1.262 2.104 2.419 0 1.341-1.052 2.498-3.261 2.498-0.92 0-1.841-0.237-2.288-0.5l0.342-1.499z" />
  </svg><svg id="trustmark" viewBox="0 0 298 297" class="sprite-symbol-usage">
    <style type="text/css">
      #trustmark .st0 {
        fill-rule: evenodd;
        clip-rule: evenodd;
        fill: url(#trustmark_background-circle_1_);
      }

      #trustmark .st1 {
        fill-rule: evenodd;
        clip-rule: evenodd;
        fill: url(#trustmark_background-gradient_1_);
      }

      #trustmark .st2 {
        fill-rule: evenodd;
        clip-rule: evenodd;
        fill: #FFFFFF;
      }

      #trustmark .st3 {
        fill-rule: evenodd;
        clip-rule: evenodd;
        fill: #F7E19E;
      }

      #trustmark .st4 {
        fill-rule: evenodd;
        clip-rule: evenodd;
        fill: #F1CB53;
      }

      #trustmark .st5 {
        fill-rule: evenodd;
        clip-rule: evenodd;
        fill: #006DAD;
      }

      #trustmark .st6 {
        fill-rule: evenodd;
        clip-rule: evenodd;
        fill: #044D73;
      }
    </style>
    <g id="trustmark_Page-1">
      <g id="trustmark_Trustmark_x5F_sketch_x5F_2021_x5F_v3-01-_x28_1_x29_" transform="translate(0.600000, 0.000000)">

        <radialGradient id="trustmark_background-circle_1_" cx="-155.7867" cy="543.8901" r="0.6831" gradientTransform="matrix(296.2501 0 0 -296.25 46236.9805 161209.25)" gradientUnits="userSpaceOnUse">
          <stop offset="0" style="stop-color:#9B9C9E" />
          <stop offset="0.3207" style="stop-color:#656667" />
          <stop offset="0.7848" style="stop-color:#1D1D1D" />
          <stop offset="1" style="stop-color:#000000" />
        </radialGradient>
        <path id="trustmark_background-circle" class="st0" d="M148.5,0C230.5,0,297,66.5,297,148.5c-7.8,197-289.2,197-297,0C0,66.5,66.5,0,148.5,0
      z M149.7,55.6c-123.3,4.9-123.4,181.2,0,186.1c51.4,0,93.1-41.7,93.1-93.1S201,55.6,149.7,55.6z" />

        <radialGradient id="trustmark_background-gradient_1_" cx="-154.7975" cy="544.6031" r="0.8996" gradientTransform="matrix(119.5871 141.954 141.9539 -119.5872 -58694.5352 87191.3047)" gradientUnits="userSpaceOnUse">
          <stop offset="0" style="stop-color:#FFFEFC" />
          <stop offset="0.2422" style="stop-color:#FFFDF7" />
          <stop offset="1" style="stop-color:#F1CB54" />
        </radialGradient>
        <path id="trustmark_background-gradient" class="st1" d="M242.7,148.7c0,51.4-41.7,93.1-93.1,93.1c-123.4-4.9-123.3-181.2,0-186.1
      C201,55.6,242.7,97.3,242.7,148.7z" />
        <g id="trustmark_text" transform="translate(15.700000, 15.677317)">
          <path id="trustmark_Shape" class="st2" d="M231.5,98.7l9.7-3c0.6,3.9,3.1,8.4,6.1,10c3.9,2.5,11.1,0.2,12.5-4.4c2-3.8-1.9-13.8-3.6-17
        l-26.6,8.3L231.5,98.7z M253.8,91.7c1.6,2.9,2.3,7.4-1.5,8.5c-3.6,1.3-6.1-2.4-6.5-6L253.8,91.7z" />
          <path id="trustmark_Shape_1_" class="st2" d="M219.1,74.9c4.6,6.9,12.3,8.4,20.1,3.3c16.2-10.6,0.8-33.3-15.5-22.3
        C217,60.4,214.4,68,219.1,74.9z M227.5,61.4c4.6-3,9.4-3.2,11.8,0.4c5.2,7.5-11.2,18.2-15.9,10.6
        C221.1,68.8,222.9,64.5,227.5,61.4z" />
          <polygon id="trustmark_Path" class="st2" points="194.1,48.2 201.6,39 209.8,45.6 202.3,54.8 207.3,58.8 225,36.9 220.1,32.8 213.3,41.3 
        205.1,34.7 211.9,26.2 206.9,22.2 189.2,44.2       " />
          <path id="trustmark_Path_1_" class="st2" d="M172.5,36.7c7.1,3.1,12,0.8,13.9-3.5c1.6-3.7,0.5-7-3.4-10.6c-2.8-2.7-3.9-4.1-3.2-5.7
        c0.6-1.3,2.3-2,4.9-0.9c2.5,1.1,4.1,2.6,4.9,3.6l3.3-4.1c-4.8-5.5-16-8.3-19.2-0.6c-1.6,3.8,0.2,7.4,3.8,10.8
        c2.7,2.4,3.5,3.9,2.8,5.5c-1.9,4.4-9.6-1.1-11.1-3.4l-3.3,4.3C166.9,33.3,169.5,35.4,172.5,36.7z" />
          <path id="trustmark_Shape_2_" class="st2" d="M143.5,3.2c-3.9-3.7-14.5-3.6-20.1-2.7l-0.5,27.7c5.7,1,16.1,1,20.4-2.9
        C149.1,20.9,150.1,7.8,143.5,3.2z M131.5,23.7c-0.8,0-1.7,0-2.2-0.2L129.6,5c6.2-1.1,12,1.6,11.7,8.9
        C141.2,20.8,137.3,23.9,131.5,23.7z" />
          <polygon id="trustmark_Path_2_" class="st2" points="115.9,29.4 114.6,24.3 103.4,27.2 101.7,20.7 111.8,18.1 110.5,13.1 100.4,15.7 
        98.9,10 109.6,7.2 108.3,2.1 91.5,6.5 98.5,33.9       " />
          <polygon id="trustmark_Path_3_" class="st2" points="69.3,22.5 80.2,42.6 85.8,39.5 74.9,19.4 81.7,15.7 79.1,11 60,21.4 62.6,26.1       " />
          <path id="trustmark_Path_4_" class="st2" d="M53.2,48.2c3.3-1.4,5-1.6,6.2-0.3c3.2,3.6-4.9,8.3-7.6,8.8l2.6,4.7c1.8-0.4,4.7-1.9,7.1-4.1
        c5.7-5.2,5.7-10.6,2.5-14.1c-2.7-2.9-6.1-3.3-11.1-1.3c-3.7,1.5-5.3,1.9-6.6,0.6c-2.7-3.1,4.3-7.4,6.4-7.8L50.3,30
        c-7,2.1-14.1,11.2-8.4,17.3C44.6,50.3,48.6,50.1,53.2,48.2z" />
          <path id="trustmark_Path_5_" class="st2" d="M44.6,77.9c3.9-6.2,2.7-12.2-4.6-16.8l-13.4-8.4l-3.4,5.4l13.7,8.6c4.3,2.7,5.3,5.5,3.5,8.3
        c-1.7,2.7-4.8,3-9,0.4l-13.7-8.6l-3.4,5.4l13.3,8.4C35.3,85.3,40.8,83.9,44.6,77.9z" />
          <path id="trustmark_Shape_3_" class="st2" d="M31.6,107l-10.7-3.1l0.5-1.8c0.8-2.5,2-3.4,5.6-3.2c3.6,0.2,5.9,0.1,6.9,0l1.8-6.3
        c-1.2,0.2-5,0-8.3,0c-2.7,0-4.8,0.5-6.1,2.2h-0.1C21,89.4,14.3,85.6,9.5,89c-3.8,2.3-5.9,12.3-6.5,16.5l26.8,7.7L31.6,107z
         M17.2,100.3l-0.7,2.4l-7.4-2.1c0.3-2.9,1.7-7.5,5.6-6.3C17.1,94.9,18.1,97.2,17.2,100.3z" />
          <polygon id="trustmark_Path_6_" class="st2" points="28.6,126.8 5.7,126.3 5.9,118.5 0.6,118.4 0,140.1 5.4,140.2 5.6,132.6 28.4,133.2       
        " />
          <path id="trustmark_Path_7_" class="st2" d="M34.6,204.7l2.9,4.7l-6.9,4.3c-6-4.9-7.3-13.7,0.7-18.4c8.2-5.4,16.1,1.1,17.3,9.3l2.9-0.8
        c-1.9-10.6-12.7-17.9-22.4-11.6c-11.4,7.1-6.9,19.2,1.4,25.6l11.2-6.9l-4.8-7.7L34.6,204.7z" />
          <path id="trustmark_Path_8_" class="st2" d="M69.8,219.3l-10.4,12.5c-3.9,4.6-7.6,5-10.7,2.4c-2.8-2.3-3.2-6.1,0.7-10.7l10.4-12.4l-2.7-2.3
        L46.7,221c-5.5,6.5-4.3,11.7,0,15.3c4.5,3.8,10.1,4,15.5-2.4l10.3-12.2L69.8,219.3z" />
          <path id="trustmark_Shape_4_" class="st2" d="M64.6,248.8l3.3,1.5l6.1-6.7l8.8,4l-0.9,9l3.4,1.6l2.8-28.8l-3.8-1.7L64.6,248.8z M85,231.5
        c-0.7,3.1-1.2,10.1-1.6,13.4l-7.5-3.4C78.2,239,83,234.1,85,231.5L85,231.5z" />
          <path id="trustmark_Shape_5_" class="st2" d="M109.1,235.8c-2.4-0.5-4.9-0.7-6.8-0.8l-5.2,26.5l3.5,0.7l2.3-11.6l3.3,0.6
        c3.1,0.7,4.3,2.4,4.4,6.3c0.1,3.5,0.2,5.9,0.5,6.8l3.6,0.7c-0.4-1.1-0.5-3.9-0.6-7.8c-0.1-2.9-0.9-5.1-2.8-6.2v-0.1
        c5.3-0.4,8.5-7,5.3-11.4C115.1,237.7,112.8,236.5,109.1,235.8z M114,244.8c-0.6,3.1-3.4,4.6-7.1,3.9l-3.5-0.7l1.9-9.8
        C109.2,238.1,115.2,239.6,114,244.8z" />
          <path id="trustmark_Shape_6_" class="st2" d="M133.4,238.5l-9,27.5h3.7l2.7-8.6l9.7-0.1l3,8.6l3.8-0.1l-9.7-27.2L133.4,238.5z M131.5,254.5
        c1-3.2,3.2-9.7,3.9-12.9h0.1c0.7,3.1,3.2,9.7,4.3,12.8L131.5,254.5z" />
          <path id="trustmark_Path_9_" class="st2" d="M169.3,233.2c1.7,6.3,3.9,16.1,6,21.9l-0.1,0.1c-3.7-4.8-14.2-14.1-18.8-18.6l-3.8,1l6.8,26.4
        l3.2-0.8c-1.6-6.1-4.2-16.7-6-22.2l0.1-0.1c4,5.1,14.3,14.1,19.1,18.9l3.5-0.9l-6.8-26.5L169.3,233.2z" />
          <polygon id="trustmark_Path_10_" class="st2" points="196.1,223.6 194.6,221 176.9,230.7 178.3,233.3 185.6,229.3 197.3,250.7 200.4,249 
        188.7,227.6       " />
          <polygon id="trustmark_Path_11_" class="st2" points="217.4,233.5 210.7,226.2 218.5,219.1 216.5,216.9 208.7,224.1 202.9,217.7 
        211.1,210.1 209.1,207.9 198.2,218 216.7,238.1 228.1,227.7 226.1,225.5       " />
          <polygon id="trustmark_Path_12_" class="st2" points="235.8,213 227.5,207.6 233.3,198.7 230.8,197.2 225.1,206.1 217.8,201.4 223.9,191.9 
        221.4,190.3 213.4,202.7 236.4,217.6 244.7,204.7 242.2,203       " />
          <path id="trustmark_Path_13_" class="st2" d="M265.7,127.1c-0.3-6.6-4.2-10.5-9-10.2c-4.1,0.2-6.5,3.5-8,8.2c-1,3.5-1.9,4.8-3.7,4.9
        c-4.8,0.2-3.3-9.1-1.9-11.5l-5.3-1c-0.8,1.6-1.5,4.9-1.3,8.1c0.4,7.7,4.6,11.1,9.3,10.9c4-0.2,6.4-2.7,8-7.7
        c1.2-3.8,1.9-5.3,3.7-5.4c4.2-0.1,3,8,1.9,9.9l5.2,1.2C265.3,132.7,265.8,130.4,265.7,127.1z" />
        </g>
        <path id="trustmark_circle-left" class="st3" d="M38.2,181.4c-0.2,6.9-10.2,6.9-10.4,0C28,174.5,38,174.5,38.2,181.4z" />
        <path id="trustmark_circle-right" class="st4" d="M268.8,181.4c-0.2,6.9-10.2,6.9-10.4,0C258.6,174.5,268.6,174.5,268.8,181.4z" />
        <path id="trustmark_Shape_7_" class="st5" d="M167.4,87.1c16,0,27.2,7.6,29.3,19.9c1.2,6.6-0.3,12.4-2.3,16.9l-0.3,0.6
      c-0.1,0.2-0.2,0.4-0.3,0.6l-0.3,0.6c-0.3,0.5-0.5,1-0.8,1.4l-0.3,0.5l0,0l-0.3,0.5l0,0l-0.3,0.5c-0.1,0.1-0.1,0.2-0.2,0.2
      l-0.3,0.5l0,0l-0.3,0.4l0,0l-0.3,0.4c-0.1,0.1-0.1,0.1-0.2,0.2l-0.3,0.4l0,0l-0.4,0.6c0,0.1-0.1,0.1-0.1,0.2l-0.4,0.5l0,0
      l-0.4,0.4l0,0c-6,6.7-15.6,12.4-29.2,17.7l-1.5,0.6l0,0c-9,3.4-18.3,5.8-27.5,7.9l-2.9,0.7l0,0l-2.9,0.6l0,0l-4.3,0.9l0,0
      c-0.9,21.9,4.7,33.3,17.2,34.9c1.1,0.1,2.3,0.2,3.4,0.2c7.1,0,13.1-2.9,17.8-6l0.7-0.5l0,0l0.7-0.5l0,0l0.7-0.5l0,0l0.7-0.5l0,0
      l1-0.7l0,0c6.2-4.9,11.2-10.7,15.3-16.5l1.5-2l6.8,5.9l-0.4,0.5l-0.9,1.3c-0.5,0.7-0.9,1.3-1.4,2l-0.9,1.3
      c-5.7,8-11.6,14.6-19.7,19.8l-0.7,0.4c-0.1,0.1-0.2,0.1-0.4,0.2l-0.7,0.4c-0.6,0.4-1.3,0.8-1.9,1.1l-0.8,0.4l0,0l-0.8,0.4
      c-6.6,3.4-15.4,6.5-25.6,6.5c-2.4,0-4.9-0.2-7.2-0.5c-18.6-2.7-29.1-16.1-29.4-37.8v-0.7c-0.2-20,6-38.4,18.6-54.7l0.5-0.6
      c13.9-17.8,30.6-26.9,51.1-27.8C166,87.2,166.7,87.1,167.4,87.1z M160.7,96.8c-0.8,0-1.7,0.1-2.5,0.2l-0.5,0.1
      c-8.7,1.5-15,7.1-20,13.8l-0.6,0.8c-0.1,0.1-0.2,0.3-0.3,0.4l-0.6,0.8l0,0l-0.6,0.8l0,0l-0.6,0.8l0,0l-0.6,0.8l0,0l-0.5,0.8l0,0
      l-0.5,0.9l0,0l-0.5,0.9l0,0c-5.8,9.4-9.6,20.2-11.8,33.1c13-2.3,24.7-6.7,33.9-12.7c12.8-8.4,19-18.3,18.5-29.2
      C173,101.8,167.9,96.8,160.7,96.8z" />
        <g id="trustmark_shadow" transform="translate(92.695454, 86.000000)">
          <path id="trustmark_Path_14_" class="st6" d="M3.5,84.8C3.3,64.5,9.5,45.5,22.3,29c13.8-17.8,31.6-26.4,52-27.3c0.8,0,1.5-0.1,2.2-0.1
        c4.2,0,8.1,0.6,11.5,1.6C83.5,1.1,78.2,0,72.1,0c-0.7,0-1.5,0-2.2,0.1C49.5,1,32.8,10.1,19,27.9C6.2,44.3-0.2,63,0,83.2
        c0.2,19.7,8.2,32.3,23.2,36.8C10.9,114.4,3.6,102.5,3.5,84.8z" />
          <path id="trustmark_Path_15_" class="st6" d="M52,111.7c9.1,0,15-5.1,20.2-9.2c6.5-5.1,12.6-11.9,16.9-17.8l-2.8-2.3l-0.9,1.4
        c-4.4,6.1-9.6,12.3-16.3,17.6c-5.2,4.1-12.3,8.6-21.4,8.6c-1.1,0-2.1-0.2-3.2-0.3c-0.7-0.1-2.2-0.5-2.8-0.7c1.9,1,4.6,2.2,7,2.5
        C49.8,111.6,50.9,111.7,52,111.7z" />
          <path id="trustmark_Path_16_" class="st6" d="M80.4,23.2C81,34.2,74.8,44,62,52.4c-8,5.3-17.9,9.3-28.9,11.7c-0.2,0.9-0.1,0.4-0.2,1.2
        C45.8,63,57.2,60,66.4,53.9c12.7-8.4,18.9-18.3,18.4-29.2c-0.3-6.5-4.2-11.2-10.1-12.2C78,14.6,80.1,18.4,80.4,23.2z" />
        </g>
      </g>
    </g>
  </svg><svg viewBox="0 0 26 26" id="verified-dark" class="sprite-symbol-usage">
    <g id="verified-dark_â­ï¸-Icons-(Icon-font)" stroke="none" strokeWidth="1" fillRule="evenodd" fill="#FFFFFF">
      <g id="verified-dark_Feedback/Verified" transform="translate(-1.000000, -1.000000)">
        <path d="M13.7279221,1 L17.454,4.727 L22.7279221,4.72792206 L22.727,9.999 L26.4558441,13.7279221 L22.727,17.455 L22.7279221,22.7279221 L17.455,22.727 L13.7279221,26.4558441 L9.999,22.727 L4.72792206,22.7279221 L4.727,17.454 L1,13.7279221 L4.727,10 L4.72792206,4.72792206 L10,4.727 L13.7279221,1 Z M19.7430238,9.11778631 C19.2821124,8.83557968 19.0032741,9.13152203 18.8546204,9.26876328 L18.8546204,9.26876328 L12.2395307,16.3357494 L9.11035248,14.0985788 C8.90943699,13.9641383 8.63306274,13.6938652 8.22184019,14.0303195 C7.94327553,14.2754005 7.94327553,14.6298598 8.13165326,14.8785367 L8.13165326,14.8785367 L11.5970986,19.6763768 C11.7437129,19.8791796 11.9835564,20 12.2395307,20 C12.495505,20 12.7353485,19.8791796 12.8819628,19.6763768 L12.8819628,19.6763768 L19.8717387,9.99924687 C20.0600629,9.750594 20.0600629,9.33953341 19.7430238,9.11778631 Z" id="verified-dark_ðŸŽ¨-Icon-Color" />
      </g>
    </g>
  </svg><svg viewBox="0 0 26 26" id="verified-light" class="sprite-symbol-usage">
    <g id="verified-light_â­ï¸-Icons-(Icon-font)" stroke="none" strokeWidth="1" fillRule="evenodd" fill="#005AA0">
      <g id="verified-light_Feedback/Verified" transform="translate(-1.000000, -1.000000)">
        <path d="M13.7279221,1 L17.454,4.727 L22.7279221,4.72792206 L22.727,9.999 L26.4558441,13.7279221 L22.727,17.455 L22.7279221,22.7279221 L17.455,22.727 L13.7279221,26.4558441 L9.999,22.727 L4.72792206,22.7279221 L4.727,17.454 L1,13.7279221 L4.727,10 L4.72792206,4.72792206 L10,4.727 L13.7279221,1 Z M19.7430238,9.11778631 C19.2821124,8.83557968 19.0032741,9.13152203 18.8546204,9.26876328 L18.8546204,9.26876328 L12.2395307,16.3357494 L9.11035248,14.0985788 C8.90943699,13.9641383 8.63306274,13.6938652 8.22184019,14.0303195 C7.94327553,14.2754005 7.94327553,14.6298598 8.13165326,14.8785367 L8.13165326,14.8785367 L11.5970986,19.6763768 C11.7437129,19.8791796 11.9835564,20 12.2395307,20 C12.495505,20 12.7353485,19.8791796 12.8819628,19.6763768 L12.8819628,19.6763768 L19.8717387,9.99924687 C20.0600629,9.750594 20.0600629,9.33953341 19.7430238,9.11778631 Z" id="verified-light_ðŸŽ¨-Icon-Color" />
      </g>
    </g>
  </svg><svg viewBox="0 0 127 70" id="yellow-wave-dark" class="sprite-symbol-usage">
    <!-- Generator: Sketch 63.1 (92452) - https://sketch.com -->
    <title>Path-2</title>
    <desc>Created with Sketch.</desc>
    <g id="yellow-wave-dark_Page-1" stroke="none" stroke-width="1" fill="none" fill-rule="evenodd">
      <g id="yellow-wave-dark_Desktop-HD-5th-proposal-Variant-2" transform="translate(-1290.000000, -636.000000)" fill="#000000" fill-rule="nonzero">
        <path d="M1371.8715,607.767052 C1398.40721,682.721041 1411.74511,720.433261 1411.88519,720.903713 C1410.97086,724.391405 1393.68833,735.630361 1382.31092,736.375055 C1368.94193,737.250105 1351.68475,732.567247 1342.28728,718.427679 C1324.80607,692.125177 1343.67935,667.18256 1306.63072,630.231255 C1319.85515,625.499631 1341.60207,618.011563 1371.8715,607.767052 Z" id="yellow-wave-dark_Path-2" transform="translate(1359.257955, 672.121804) rotate(-251.000000) translate(-1359.257955, -672.121804) " />
      </g>
    </g>
  </svg><svg viewBox="0 0 127 70" id="yellow-wave-light" class="sprite-symbol-usage">
    <!-- Generator: Sketch 63.1 (92452) - https://sketch.com -->
    <title>Path-2</title>
    <desc>Created with Sketch.</desc>
    <g id="yellow-wave-light_Page-1" stroke="none" stroke-width="1" fill="none" fill-rule="evenodd">
      <g id="yellow-wave-light_Desktop-HD-5th-proposal-Variant-2" transform="translate(-1290.000000, -636.000000)" fill="#FFDC0F" fill-rule="nonzero">
        <path d="M1371.8715,607.767052 C1398.40721,682.721041 1411.74511,720.433261 1411.88519,720.903713 C1410.97086,724.391405 1393.68833,735.630361 1382.31092,736.375055 C1368.94193,737.250105 1351.68475,732.567247 1342.28728,718.427679 C1324.80607,692.125177 1343.67935,667.18256 1306.63072,630.231255 C1319.85515,625.499631 1341.60207,618.011563 1371.8715,607.767052 Z" id="yellow-wave-light_Path-2" transform="translate(1359.257955, 672.121804) rotate(-251.000000) translate(-1359.257955, -672.121804) " />
      </g>
    </g>
  </svg>
</svg>