<?xml version="1.0" encoding="utf-8"?>
<!-- Generator: Adobe Illustrator 27.8.1, SVG Export Plug-In . SVG Version: 6.00 Build 0)  -->
<svg version="1.1" id="Ebene_1" xmlns="http://www.w3.org/2000/svg" xmlns:xlink="http://www.w3.org/1999/xlink" x="0px" y="0px"
	 viewBox="0 0 98 21" style="enable-background:new 0 0 98 21;" xml:space="preserve">
<style type="text/css">
	.st0{fill:#95C11F;}
</style>
<g>
	<path class="st0" d="M7.3,16.7h2.1l-0.6,2.6H1.1l0.6-2.6h2.6l1.3-6.2c-1,0.6-2,1.1-3.2,1.4L1.9,10l5.4-3.3h2.2L7.3,16.7z"/>
	<path class="st0" d="M16.7,19.6c-2.9,0-4.5-1.6-4.5-4.8c0-3.6,2.6-8,7.3-8c2.9,0,4.5,1.5,4.5,4.8C24,15.2,21.4,19.6,16.7,19.6z
		 M19,9.1c-2.4,0-3.3,4.1-3.3,6.1c0,1.6,0.6,2,1.6,2c2.4,0,3.3-4.2,3.3-6.2C20.6,9.5,19.9,9.1,19,9.1z"/>
	<path class="st0" d="M30.7,19.6c-2.9,0-4.5-1.6-4.5-4.8c0-3.6,2.6-8,7.3-8c2.9,0,4.5,1.5,4.5,4.8C38,15.2,35.4,19.6,30.7,19.6z
		 M33,9.1c-2.4,0-3.3,4.1-3.3,6.1c0,1.6,0.6,2,1.6,2c2.4,0,3.3-4.2,3.3-6.2C34.5,9.5,33.9,9.1,33,9.1z"/>
	<path class="st0" d="M44.3,10.7c-2.1,0-3.3-1.1-3.3-2.9c0-3.3,2.2-5.4,5.1-5.4c2.1,0,3.4,1.2,3.4,3.1C49.4,8.2,47.7,10.7,44.3,10.7
		z M44.7,19.3h-2.6L54.4,2.6H57L44.7,19.3z M45.8,4.2c-1.5,0-2.2,1.6-2.2,3.7c0,0.7,0.4,1,1.2,1c1.3,0,2.1-1.7,2.1-3.6
		C46.8,4.5,46.5,4.2,45.8,4.2z M53,19.5c-2.1,0-3.3-1.1-3.3-2.9c0-3.3,2.2-5.4,5.1-5.4c2.1,0,3.4,1.2,3.4,3.1
		C58.1,17,56.3,19.5,53,19.5z M54.4,13c-1.5,0-2.2,1.6-2.2,3.7c0,0.7,0.4,1,1.2,1c1.3,0,2.1-1.7,2.1-3.6C55.5,13.3,55.1,13,54.4,13z
		"/>
	<path class="st0" d="M73.6,18.5c-1.2,0.8-2.3,1.1-3.5,1.1c-2,0-3.9-0.5-4.9-1.2c0.1-0.4,0.4-1.3,0.5-1.8l2.3-10.8
		c0.2-1.1,0.3-1.8,0.3-2.5c0-0.3,0-0.6-0.1-0.9l3.3-1c0.1,0.3,0.1,0.6,0.1,1c0,0.7-0.1,1.5-0.2,2.2L71,6.6C70.9,7,70.6,8,70.5,8.3
		c0.7-0.8,1.9-1.6,3.4-1.6c2.3,0,3.3,1.6,3.3,4.3C77.2,14,75.9,16.9,73.6,18.5z M72.7,9.3c-1,0-2,0.8-2.7,1.9l-1.2,5.5
		c0.3,0.3,0.9,0.5,1.7,0.5c0.7,0,1.6-0.6,2-1.4c0.7-1.2,1.2-3.9,1.2-4.9C73.7,9.9,73.4,9.3,72.7,9.3z"/>
	<path class="st0" d="M81.7,19.3h-3.2l2.6-12.1l3.3-0.5L81.7,19.3z M83.4,5.6c-1.1,0-2-0.9-2-2s0.9-2,2-2c1.1,0,1.9,0.9,1.9,2
		S84.5,5.6,83.4,5.6z"/>
	<path class="st0" d="M89.7,19.6c-2.8,0-4.4-1.5-4.4-4.3c0-4.6,2.9-8.4,7.1-8.4c2.8,0,4.5,1.5,4.5,4.2
		C96.9,15.3,94.6,19.6,89.7,19.6z M92,9.1c-2.2,0-3.2,4.5-3.2,6.4c0,1.2,0.6,1.7,1.5,1.7c2.1,0,3.2-3.9,3.2-6.3
		C93.4,9.6,92.9,9.1,92,9.1z"/>
</g>
</svg>
