<?xml version="1.0" encoding="utf-8"?>
<!-- Generator: Adobe Illustrator 27.8.1, SVG Export Plug-In . SVG Version: 6.00 Build 0)  -->
<svg version="1.1" id="Ebene_1" xmlns="http://www.w3.org/2000/svg" xmlns:xlink="http://www.w3.org/1999/xlink" x="0px" y="0px"
	 viewBox="0 0 151.1 31.2" style="enable-background:new 0 0 151.1 31.2;" xml:space="preserve">
<style type="text/css">
	.st0{fill:#95C11F;}
</style>
<g>
	<path class="st0" d="M11.3,22.3c-1.2,0.8-2.3,1.1-3.5,1.1c-2,0-3.9-0.5-4.9-1.2c0.1-0.4,0.4-1.3,0.5-1.8L5.7,9.6
		C5.9,8.6,6,7.8,6,7.1c0-0.3,0-0.6-0.1-0.9l3.3-1c0.1,0.3,0.1,0.6,0.1,1c0,0.7-0.1,1.5-0.2,2.2l-0.4,1.9c-0.1,0.4-0.3,1.4-0.5,1.7
		c0.7-0.8,1.9-1.6,3.4-1.6c2.3,0,3.3,1.6,3.3,4.3C14.9,17.8,13.6,20.7,11.3,22.3z M10.4,13.1c-1,0-2,0.8-2.7,1.9l-1.2,5.5
		C6.8,20.8,7.4,21,8.2,21c0.7,0,1.6-0.7,2-1.4c0.7-1.2,1.2-3.9,1.2-4.9C11.4,13.7,11.1,13.1,10.4,13.1z"/>
	<path class="st0" d="M19.4,23.1h-3.2L18.8,11l3.3-0.5L19.4,23.1z M21.2,9.4c-1.1,0-2-0.9-2-2s0.9-2,2-2c1.1,0,1.9,0.9,1.9,2
		S22.3,9.4,21.2,9.4z"/>
	<path class="st0" d="M27.5,23.3c-2.8,0-4.4-1.5-4.4-4.3c0-4.6,2.9-8.5,7.1-8.5c2.8,0,4.5,1.5,4.5,4.2
		C34.6,19.1,32.3,23.3,27.5,23.3z M29.7,12.9c-2.2,0-3.2,4.5-3.2,6.4c0,1.2,0.6,1.7,1.5,1.7c2.1,0,3.2-3.9,3.2-6.3
		C31.2,13.3,30.6,12.9,29.7,12.9z"/>
	<path class="st0" d="M51.4,13l-7.1,7.8h5.4l-1,2.2h-9.1l0.2-2l7.5-8h-5.1l0.3-2.3h9.1L51.4,13z"/>
	<path class="st0" d="M56.6,18.1c-0.7,0-1.3-0.1-1.5-0.2c-0.1,0.3-0.1,0.8-0.1,1.1c0,1.4,0.7,2,2.1,2c1.1,0,2.3-0.5,3.4-1.3l0.8,2
		c-1.7,1.2-3.3,1.7-5,1.7c-2.9,0-4.7-1.5-4.7-4.5c0-2.5,1.1-5.2,2.8-6.8c1.2-1.2,2.6-1.6,4.2-1.6c2.4,0,4.2,1,4.2,3.4
		C62.9,16.2,60.7,18.1,56.6,18.1z M58.3,12.9c-1.2,0-2.1,0.7-2.6,2.9c0.1,0,0.5,0.1,0.9,0.1c1.4,0,3-0.5,3-1.7
		C59.6,13.4,59.3,12.9,58.3,12.9z"/>
	<path class="st0" d="M71.8,13.6c-0.3-0.2-0.6-0.2-0.9-0.2c-0.6,0-1.3,0.4-2.3,1.7l-1.7,8h-3.2l1.7-8.1c0.3-1.5,0.3-2.6,0.1-3.4
		l3-1.2c0.2,0.4,0.4,1.3,0.3,2c1.1-1.1,2.2-1.9,3.4-1.9c0.5,0,0.7,0,1.1,0.3L71.8,13.6z"/>
	<path class="st0" d="M80.1,13H78l-1.3,6.2c-0.1,0.4-0.1,0.8-0.1,1.1c0,0.7,0.4,0.9,1.1,0.9c0.3,0,0.8-0.1,1.2-0.2v1.9
		c-0.9,0.4-1.9,0.5-2.7,0.5c-1.8,0-2.9-0.9-2.9-2.1c0-0.4,0.1-1,0.2-1.6l1.4-6.7h-1.2l0.5-2.2h1.2c0.2-1.2,0.4-2,0.7-2.9l3.4-0.8
		c-0.4,1.1-0.7,2.5-1,3.7h2.9L80.1,13z"/>
	<path class="st0" d="M83.5,23.1h-3.2L82.8,11l3.3-0.5L83.5,23.1z M85.2,9.4c-1.1,0-2-0.9-2-2s0.9-2,2-2c1.1,0,1.9,0.9,1.9,2
		S86.3,9.4,85.2,9.4z"/>
	<path class="st0" d="M97.7,23.1h-3.2L96.7,13h-4.2l-2,10.1c-0.5,2.3-1.8,4.3-3.1,5.4l-2-1.8c0.7-0.7,1.6-2.3,1.8-3.6l2-10.1h-1.2
		l0.5-2.2h1.2c0-0.5,0.2-1.1,0.3-1.7c0.5-2.6,2.2-3.8,4.7-3.8c1,0,2,0.1,2.6,0.6l-1.4,1.9c-0.2-0.1-0.8-0.2-1.2-0.2
		c-0.8,0-1.5,0.5-1.7,1.4l-0.4,1.8h7.5L97.7,23.1z M99.5,9.4c-1.1,0-2-0.9-2-2s0.9-2,2-2c1.1,0,1.9,0.9,1.9,2S100.6,9.4,99.5,9.4z"
		/>
	<path class="st0" d="M111.2,13l-7.1,7.8h5.4l-1,2.2h-9.1l0.2-2l7.5-8h-5.1l0.3-2.3h9.1L111.2,13z"/>
	<path class="st0" d="M114.7,23.1h-3.2L114,11l3.3-0.5L114.7,23.1z M116.4,9.4c-1.1,0-2-0.9-2-2s0.9-2,2-2c1.1,0,1.9,0.9,1.9,2
		C118.4,8.5,117.5,9.4,116.4,9.4z"/>
	<path class="st0" d="M123.4,18.1c-0.7,0-1.3-0.1-1.5-0.2c-0.1,0.3-0.1,0.8-0.1,1.1c0,1.4,0.7,2,2.1,2c1.1,0,2.3-0.5,3.4-1.3l0.8,2
		c-1.7,1.2-3.3,1.7-5,1.7c-2.9,0-4.7-1.5-4.7-4.5c0-2.5,1.1-5.2,2.8-6.8c1.2-1.2,2.6-1.6,4.2-1.6c2.4,0,4.2,1,4.2,3.4
		C129.6,16.2,127.5,18.1,123.4,18.1z M125.1,12.9c-1.2,0-2.1,0.7-2.6,2.9c0.1,0,0.5,0.1,0.9,0.1c1.4,0,3-0.5,3-1.7
		C126.4,13.4,126.1,12.9,125.1,12.9z"/>
	<path class="st0" d="M138.6,13.6c-0.3-0.2-0.6-0.2-0.9-0.2c-0.6,0-1.3,0.4-2.3,1.7l-1.7,8h-3.2l1.7-8.1c0.3-1.5,0.3-2.6,0.1-3.4
		l3-1.2c0.2,0.4,0.4,1.3,0.3,2c1.1-1.1,2.2-1.9,3.4-1.9c0.5,0,0.7,0,1.1,0.3L138.6,13.6z"/>
	<path class="st0" d="M146.9,13h-2.1l-1.3,6.2c-0.1,0.4-0.1,0.8-0.1,1.1c0,0.7,0.4,0.9,1.1,0.9c0.3,0,0.8-0.1,1.2-0.2v1.9
		c-0.9,0.4-1.9,0.5-2.7,0.5c-1.9,0-2.9-0.9-2.9-2.1c0-0.4,0.1-1,0.2-1.6l1.4-6.7h-1.2l0.5-2.2h1.2c0.2-1.2,0.4-2,0.7-2.9l3.4-0.8
		c-0.4,1.1-0.7,2.5-1,3.7h2.9L146.9,13z"/>
</g>
</svg>
