<?xml version="1.0" encoding="utf-8"?>
<!-- Generator: Adobe Illustrator 27.8.1, SVG Export Plug-In . SVG Version: 6.00 Build 0)  -->
<svg version="1.1" id="Ebene_1" xmlns="http://www.w3.org/2000/svg" xmlns:xlink="http://www.w3.org/1999/xlink" x="0px" y="0px"
	 viewBox="0 0 290 93" style="enable-background:new 0 0 290 93;" xml:space="preserve">
<style type="text/css">
	.st0{clip-path:url(#SVGID_00000071524754554502752640000001063147943063947174_);fill:#FFFFFF;}
	.st1{clip-path:url(#SVGID_00000071524754554502752640000001063147943063947174_);fill:#C90130;}
</style>
<g>
	<defs>
		<rect id="SVGID_1_" x="0.4" y="0.4" width="289.5" height="92.8"/>
	</defs>
	<clipPath id="SVGID_00000078763316481644189970000011417660286903925433_">
		<use xlink:href="#SVGID_1_"  style="overflow:visible;"/>
	</clipPath>
	<path style="clip-path:url(#SVGID_00000078763316481644189970000011417660286903925433_);fill:#FFFFFF;" d="M26.6,40.2
		c-2.3-1.4-5.6-2.4-9-2.4c-8.4,0-12.6,4.7-12.6,9.7c0,3.6,2,5.5,5.4,6.8l3.3,1.2c2.6,1,3.6,1.9,3.6,3.7c0,2.4-2.4,4.1-5.5,4.1
		c-3.2,0-6.6-1.2-9-2.8l-2.5,4.6c3,1.9,6.6,3,10.6,3c8.5,0,13.3-4.8,13.3-10.7c0-3.4-2.3-5.4-5.9-6.8l-3.4-1.3
		c-2.3-0.8-3.1-1.8-3.1-3.3c0-2.4,2.2-3.5,5.2-3.5c2.3,0,4.5,0.6,6.9,2L26.6,40.2z"/>
	<path style="clip-path:url(#SVGID_00000078763316481644189970000011417660286903925433_);fill:#FFFFFF;" d="M53,41
		c-2-2-4.6-3-7.3-3c-3.6,0-6.5,1.1-9.1,3.3c-3.9,3.3-7.3,10.1-7.3,16.9c0,6.2,3.2,9.8,9.7,9.8c3.9,0,7-1.2,10.2-3.8l-2.3-3.9
		c-2.1,1.9-4.4,3-6.5,3c-2.7,0-4.3-1.7-4.3-5.1c0-4.4,1.9-10.4,4-12.9c1.2-1.5,3-2.3,4.7-2.3c1.7,0,3.5,0.6,4.9,2.1L53,41z"/>
	<path style="clip-path:url(#SVGID_00000078763316481644189970000011417660286903925433_);fill:#FFFFFF;" d="M81.1,43.6
		c0-3.3-2.2-5.6-6.4-5.6c-3.5,0-7.4,1.8-10.2,5c0.3-1,0.9-3.3,1.1-4.3l0.9-4c0.8-3.6,1-7.6,0.5-9.3l-6.4,2.1
		c0.5,1.8,0.4,4.2-0.5,8.4l-6.7,31.4h6.2l4-18.6c2.4-3.1,6.1-5.4,8.4-5.4c1.7,0,2.6,0.8,2.7,2.4c0,0.6-0.2,1.5-0.3,2.4l-4.1,19.3
		h6.1l4.3-20.2C81,45.6,81.1,44.5,81.1,43.6"/>
	<path style="clip-path:url(#SVGID_00000078763316481644189970000011417660286903925433_);fill:#FFFFFF;" d="M111.3,43.8
		c0-3.4-2.2-5.6-5.7-5.6c-4,0-7.6,1.8-10.3,5.1c0.4-2,0.1-4.1-0.5-5.4l-5.8,2.4c0.6,2.1,0.6,4-0.1,7.3l-4.2,19.8h6.1l4-18.6
		c3-3.9,5.9-5.3,7.9-5.3c1.5,0,2.3,0.6,2.3,2.3c0,0.6-0.1,1.5-0.4,2.8l-4,18.9h6.2l4.4-20.5C111.3,45.9,111.3,44.7,111.3,43.8"/>
	<path style="clip-path:url(#SVGID_00000078763316481644189970000011417660286903925433_);fill:#FFFFFF;" d="M134.9,46.1
		c0,1.2-0.5,2.1-1.2,2.8c-1.4,1.4-3.7,1.9-7.2,1.9c-1,0-2.2-0.2-2.5-0.2c1.3-5.4,4.1-7.9,7.3-7.9C133.9,42.7,134.9,44.2,134.9,46.1
		 M141.2,45.7c0-5.1-3.5-7.6-9.1-7.6c-3.7,0-6.9,1.2-9.7,3.9c-3.9,3.8-6.4,9.9-6.4,15.6c0,6.8,4.1,10.5,10.2,10.5
		c4.8,0,8.2-1.3,11.7-4.1l-1.9-3.8c-2.7,2.1-5.1,3.1-8.1,3.1c-3.1,0-5.2-1.7-5.2-5.3c0-0.9,0.2-2.4,0.3-3c0.5,0,1.9,0.2,3.5,0.2
		c5.9,0,9.8-1.3,12.2-3.6C140.3,50.1,141.2,48,141.2,45.7"/>
	<path style="clip-path:url(#SVGID_00000078763316481644189970000011417660286903925433_);fill:#FFFFFF;" d="M156.6,38.1l-6.5,1
		l-6,28.2h6.4L156.6,38.1z M159.3,30.4c0-2.3-1.8-4.1-4.1-4.1c-2.3,0-4.2,1.9-4.2,4.2c0,2.3,1.9,4.1,4.1,4.1
		C157.4,34.6,159.3,32.8,159.3,30.4"/>
	<path style="clip-path:url(#SVGID_00000078763316481644189970000011417660286903925433_);fill:#FFFFFF;" d="M179.9,44.5L177,57.9
		c-1.8,3-4.9,5.1-7.3,5.1c-2.3,0-3.5-1.6-3.5-4.7c0-3.9,1.6-9.4,3.9-12.3c1.4-1.7,3.4-2.6,5.2-2.6C177.5,43.3,178.7,43.7,179.9,44.5
		 M189.9,26.8l-6-1l-2,9.6c-0.2,1-0.7,3.6-0.7,3.8c-1-0.5-3-0.9-5.5-0.9c-3.3,0-6.9,1.4-9.6,4c-4,4-6.3,10.1-6.3,15.8
		c0,6.4,2.7,9.8,8.5,9.8c3.3,0,6.2-1.5,8.5-4.2c-0.1,1.8,0.3,3.2,1.1,4.1l5.3-1.2c-0.8-1.4-1-3.2,0.3-9.2L189.9,26.8z"/>
	<path style="clip-path:url(#SVGID_00000078763316481644189970000011417660286903925433_);fill:#FFFFFF;" d="M210,46.1
		c0,1.2-0.5,2.1-1.2,2.8c-1.4,1.4-3.7,1.9-7.2,1.9c-1,0-2.2-0.2-2.5-0.2c1.2-5.4,4.1-7.9,7.3-7.9C209,42.7,210,44.2,210,46.1
		 M216.3,45.7c0-5.1-3.5-7.6-9.1-7.6c-3.7,0-6.9,1.2-9.7,3.9c-3.9,3.8-6.4,9.9-6.4,15.6c0,6.8,4.1,10.5,10.2,10.5
		c4.8,0,8.2-1.3,11.7-4.1l-1.9-3.8c-2.7,2.1-5.1,3.1-8.1,3.1c-3.1,0-5.2-1.7-5.2-5.3c0-0.9,0.2-2.4,0.3-3c0.5,0,1.9,0.2,3.5,0.2
		c5.9,0,9.8-1.3,12.2-3.6C215.4,50.1,216.3,48,216.3,45.7"/>
	<path style="clip-path:url(#SVGID_00000078763316481644189970000011417660286903925433_);fill:#FFFFFF;" d="M240.7,38.5
		c-0.9-0.3-1.4-0.5-2.4-0.5c-2.8,0-6,2.1-8.6,5.4c0.4-2,0.2-4.1-0.5-5.6l-5.8,2.4c0.6,2,0.6,4.1-0.2,8l-4.1,19.1h6.2l3.9-18.4
		c2.5-3.5,4.7-5,6.7-5c0.9,0,1.4,0.1,2,0.5L240.7,38.5z"/>
	<path style="clip-path:url(#SVGID_00000078763316481644189970000011417660286903925433_);fill:#FFFFFF;" d="M245.3,22.6
		c0-12.3,10-22.2,22.3-22.2c12.3,0,22.3,9.9,22.3,22.2c0,12.3-10,22.2-22.3,22.2C255.3,44.8,245.3,34.8,245.3,22.6"/>
	<path style="clip-path:url(#SVGID_00000078763316481644189970000011417660286903925433_);fill:#C90130;" d="M246.2,22.6
		c0-11.8,9.6-21.3,21.4-21.3c11.8,0,21.4,9.5,21.4,21.3c0,11.8-9.6,21.3-21.4,21.3C255.8,43.9,246.2,34.3,246.2,22.6"/>
	<path style="clip-path:url(#SVGID_00000078763316481644189970000011417660286903925433_);fill:#FFFFFF;" d="M248.9,22.6
		c0-10.3,8.4-18.6,18.7-18.6c10.3,0,18.7,8.3,18.7,18.6c0,10.3-8.4,18.6-18.7,18.6C257.3,41.2,248.9,32.9,248.9,22.6"/>
	<path style="clip-path:url(#SVGID_00000078763316481644189970000011417660286903925433_);fill:#C90130;" d="M275.1,17.9
		c-1.7-1-4.6-0.8-5.8-1.2l0.1-0.3c0.1-0.1,0.3-0.3,0.4-0.4c0.5-0.4,2.4,0.3,4,0.3c1.6,0,2.4-2,3.6-2.5c1.2-0.5,1.5-2.4,1.5-2.4
		s-0.8,0.9-2.3,1.3c-1.4,0.4-2.6-0.3-5.2,0.8c-0.5,0.2-1,0.5-1.3,0.8c0.2-0.5,0.3-1.1,0.4-1.7c0.3-2,0.5-6.6-0.1-6.9
		c-0.5-0.2-1.9-0.1-1.8,0.7c0.2,0.7,1.4,3.1,0.7,6.5c-0.2,1.3-0.8,2.8-1,3.3c-0.5-0.3-1.3-0.6-2.1-1c-0.3-0.5-0.9-1.2-2.4-1.5
		c-2.3-0.5-3.1,0.2-4.3,0.2c-1.2-0.1-2-0.7-2-0.7s0.6,1.4,1.6,1.6c0.1,0,0.2,0.1,0.3,0.1c-2.4,1.5-5.6,6.5-4,11.3
		c1.5,4.7,1.2,6.3,2.8,8c0.8,0.9,3.8,0.9,4.7,1.2c0.6,0.2,2.8,1.7,4.4,1.5c0.8-0.1,5.6-2.8,8.3-6.3
		C279.6,25.9,278.4,19.9,275.1,17.9"/>
	<path style="clip-path:url(#SVGID_00000078763316481644189970000011417660286903925433_);fill:#FFFFFF;" d="M59.8,83.4
		c0,2.5-1,5-2.9,5c-1,0-1.6-0.5-1.6-1.8c0-2.5,1.1-5,3-5C59.1,81.7,59.8,82.1,59.8,83.4 M61.6,83.5c0-1.9-1-3.2-3.1-3.2
		c-2.9,0-5,2.7-5,6.2c0,2,1.1,3.2,3.1,3.2C59.6,89.7,61.6,86.9,61.6,83.5"/>
	<path style="clip-path:url(#SVGID_00000078763316481644189970000011417660286903925433_);fill:#FFFFFF;" d="M69.8,83.4
		c0,1.2-0.5,3.1-1.3,4.1c-0.4,0.5-1.2,0.9-1.8,0.9c-0.8,0-1.3-0.2-1.7-0.5l0.9-4.2c0.9-1.2,1.8-1.8,2.7-1.8
		C69.4,81.8,69.8,82.4,69.8,83.4 M71.6,83.4c0-1.9-0.8-3-2.4-3c-1.2,0-2.4,0.7-3.1,1.7c0.1-0.4,0.3-1.1,0.4-1.5l0.2-1.3
		c0.2-1.2,0.3-2.3,0.1-2.9L65.2,77c0.2,0.6,0.1,1.6-0.1,2.6l-1.6,7.7c-0.1,0.4-0.2,1-0.3,1.3c0.9,0.7,2.3,1,3.5,1c1,0,2-0.3,2.8-1.1
		C70.7,87.5,71.6,85.5,71.6,83.4"/>
	<path style="clip-path:url(#SVGID_00000078763316481644189970000011417660286903925433_);fill:#FFFFFF;" d="M80.1,81
		c-0.7-0.4-1.7-0.7-2.7-0.7c-2.4,0-3.8,1.3-3.8,2.9c0,1.1,0.6,1.7,1.7,2.1l1,0.4c0.9,0.4,1.1,0.7,1.1,1.3c0,0.8-0.9,1.4-2,1.4
		c-1,0-1.9-0.3-2.7-0.9l-0.7,1.2c0.9,0.6,2,0.9,3.2,0.9c2.4,0,4-1.3,4-3.2c0-1-0.6-1.7-1.9-2.2l-1.1-0.4c-0.7-0.3-1-0.6-1-1.2
		c0-0.8,0.8-1.2,1.9-1.2c0.7,0,1.4,0.2,2.1,0.6L80.1,81z"/>
	<path style="clip-path:url(#SVGID_00000078763316481644189970000011417660286903925433_);fill:#FFFFFF;" d="M86.7,80.6h-2.2
		c0.2-0.8,0.5-1.9,0.7-2.6l-1.8,0.4c-0.2,0.7-0.4,1.5-0.6,2.2h-1.1l-0.2,1.2h1.1L81.5,87c-0.1,0.5-0.1,0.8-0.1,1.3
		c0,0.9,0.6,1.5,1.7,1.5c0.6,0,1.2-0.1,1.7-0.4v-1c-0.3,0.1-0.6,0.2-0.9,0.2c-0.6,0-0.9-0.2-0.9-0.8c0-0.2,0.1-0.5,0.1-0.9l1.1-5
		h1.8L86.7,80.6z"/>
	<path style="clip-path:url(#SVGID_00000078763316481644189970000011417660286903925433_);fill:#FFFFFF;" d="M95.1,82.1
		c0-1-0.7-1.7-1.9-1.7c-1.1,0-2.4,0.5-3.4,1.7c0.1-0.4,0.3-1.2,0.4-1.5l0.2-1.1c0.3-1.3,0.4-2.5,0.2-3.1L88.9,77
		c0.2,0.6,0.2,1.5-0.1,2.7l-2.1,9.8h1.6l1.2-5.8c0.9-1.1,2.1-1.9,2.9-1.9c0.6,0,0.9,0.3,0.9,0.9c0,0.2-0.1,0.5-0.1,0.8l-1.3,6h1.6
		l1.4-6.3C95.1,82.7,95.1,82.4,95.1,82.1"/>
	<path style="clip-path:url(#SVGID_00000078763316481644189970000011417660286903925433_);fill:#FFFFFF;" d="M102.9,83.4
		c0,2.5-1,5-2.9,5c-1,0-1.6-0.5-1.6-1.8c0-2.5,1.1-5,3-5C102.2,81.7,102.9,82.1,102.9,83.4 M104.7,83.5c0-1.9-1-3.2-3.1-3.2
		c-2.9,0-5,2.7-5,6.2c0,2,1.1,3.2,3.1,3.2C102.7,89.7,104.7,86.9,104.7,83.5"/>
	<path style="clip-path:url(#SVGID_00000078763316481644189970000011417660286903925433_);fill:#FFFFFF;" d="M113.3,77.1
		c-0.4-0.3-1-0.5-1.8-0.5c-0.7,0-1.2,0.1-1.7,0.4c-0.7,0.5-1.2,1.2-1.4,2.4c0,0.1-0.2,1.1-0.2,1.2h-0.9l-0.2,1.2h0.9l-1.5,7.8
		c-0.3,1.3-0.7,2.2-1.2,2.9l1.2,0.8c0.7-0.8,1.3-1.9,1.6-3.6l1.6-7.9h1.9l0.7-1.2h-2.4l0.2-1.3c0.2-0.9,0.7-1.4,1.5-1.4
		c0.4,0,0.9,0.1,1.2,0.4L113.3,77.1z"/>
	<path style="clip-path:url(#SVGID_00000078763316481644189970000011417660286903925433_);fill:#FFFFFF;" d="M121.6,81.9l-1,4.5
		c-0.5,1.1-1.5,1.9-2.4,1.9c-0.7,0-1.1-0.4-1.1-1.5c0-1.3,0.4-3,1.2-4c0.7-0.8,1.4-1.2,2.4-1.2C121,81.7,121.3,81.8,121.6,81.9
		 M123.4,81.1c-0.7-0.5-1.7-0.7-2.6-0.7c-1.4,0-2.6,0.5-3.6,1.5c-1.2,1.2-1.9,3.2-1.9,5c0,1.9,1,2.8,2.2,2.8c1.3,0,2.3-0.6,2.9-1.6
		c0,0.7,0.2,1.2,0.7,1.7l1.3-1c-0.4-0.5-0.6-0.9-0.3-2.2l0.8-3.6C123,82.4,123.3,81.5,123.4,81.1"/>
	<path style="clip-path:url(#SVGID_00000078763316481644189970000011417660286903925433_);fill:#FFFFFF;" d="M137.1,82.1
		c0-1-0.6-1.8-1.7-1.8c-0.9,0-2.1,0.5-3.2,1.8c0-1.1-0.5-1.7-1.5-1.7c-0.9,0-2.1,0.5-3.2,1.8c0.1-0.6,0.1-1.3-0.1-1.8l-1.5,0.7
		c0.2,0.6,0.2,1.2-0.1,2.2l-1.3,6.3h1.6l1.2-5.8c1-1.2,2-1.9,2.7-1.9c0.5,0,0.7,0.3,0.7,0.7c0,0.2-0.1,0.6-0.2,1l-1.3,6h1.6l1.2-5.8
		c0.9-1.1,1.9-1.8,2.6-1.8c0.6,0,0.8,0.2,0.8,0.7c0,0.2,0,0.5-0.1,0.8l-1.3,6.1h1.7l1.3-6.3C137,82.9,137.1,82.4,137.1,82.1"/>
	<path style="clip-path:url(#SVGID_00000078763316481644189970000011417660286903925433_);fill:#FFFFFF;" d="M149.7,81
		c-0.7-0.4-1.7-0.7-2.7-0.7c-2.4,0-3.8,1.3-3.8,2.9c0,1.1,0.6,1.7,1.7,2.1l1,0.4c0.9,0.4,1.1,0.7,1.1,1.3c0,0.8-0.9,1.4-2,1.4
		c-1,0-1.9-0.3-2.7-0.9l-0.7,1.2c0.9,0.6,2,0.9,3.2,0.9c2.4,0,4-1.3,4-3.2c0-1-0.6-1.7-1.9-2.2l-1.1-0.4c-0.7-0.3-1-0.6-1-1.2
		c0-0.8,0.8-1.2,1.9-1.2c0.7,0,1.4,0.2,2.1,0.6L149.7,81z"/>
	<path style="clip-path:url(#SVGID_00000078763316481644189970000011417660286903925433_);fill:#FFFFFF;" d="M156.3,80.6h-2.2
		c0.2-0.8,0.5-1.9,0.7-2.6l-1.8,0.4c-0.2,0.7-0.4,1.5-0.6,2.2h-1.1l-0.2,1.2h1.1l-1.1,5.2c-0.1,0.5-0.1,0.8-0.1,1.3
		c0,0.9,0.6,1.5,1.7,1.5c0.6,0,1.2-0.1,1.7-0.4v-1c-0.3,0.1-0.6,0.2-0.9,0.2c-0.6,0-0.9-0.2-0.9-0.8c0-0.2,0.1-0.5,0.1-0.9l1.1-5
		h1.8L156.3,80.6z"/>
	<path style="clip-path:url(#SVGID_00000078763316481644189970000011417660286903925433_);fill:#FFFFFF;" d="M162.5,82.8
		c0,0.4-0.2,0.7-0.4,1c-0.4,0.4-1.2,0.6-2.5,0.6c-0.3,0-0.7,0-0.9,0c0.4-1.8,1.5-2.7,2.5-2.7C162.1,81.6,162.5,82.1,162.5,82.8
		 M164.1,82.7c0-1.5-1-2.3-2.7-2.3c-1.1,0-2.1,0.4-3,1.2c-1.2,1.2-2,3.1-2,4.9c0,2.1,1.3,3.2,3,3.2c1.7,0,2.7-0.4,3.6-1.3l-0.6-1
		c-0.8,0.7-1.6,1-2.6,1c-1,0-1.7-0.6-1.7-1.8c0-0.3,0.1-0.7,0.1-1c0.3,0,0.7,0.1,1.1,0.1c1.9,0,3.1-0.4,3.8-1.1
		C163.8,84.1,164.1,83.4,164.1,82.7"/>
	<path style="clip-path:url(#SVGID_00000078763316481644189970000011417660286903925433_);fill:#FFFFFF;" d="M168.8,80.4l-1.8,0.3
		l-1.9,8.8h1.7L168.8,80.4z M169.7,77.9c0-0.7-0.5-1.2-1.2-1.2c-0.7,0-1.2,0.5-1.2,1.2c0,0.7,0.5,1.2,1.2,1.2
		C169.2,79.1,169.7,78.6,169.7,77.9"/>
	<path style="clip-path:url(#SVGID_00000078763316481644189970000011417660286903925433_);fill:#FFFFFF;" d="M178,82.2
		c0-1.1-0.7-1.8-1.8-1.8c-1.2,0-2.4,0.6-3.3,1.8c0.2-0.8,0.1-1.3-0.1-1.8l-1.5,0.7c0.2,0.7,0.2,1.1-0.1,2.2l-1.4,6.3h1.6l1.2-5.8
		c1.1-1.4,2.1-1.9,2.8-1.9c0.5,0,0.8,0.2,0.8,0.8c0,0.2-0.1,0.5-0.1,0.9l-1.3,6h1.6l1.4-6.6C177.9,82.7,178,82.4,178,82.2"/>
	<path style="clip-path:url(#SVGID_00000078763316481644189970000011417660286903925433_);fill:#FFFFFF;" d="M186.2,83.4
		c0,1.2-0.5,3.1-1.3,4.1c-0.4,0.5-1.2,0.9-1.8,0.9c-0.8,0-1.3-0.2-1.7-0.5l0.9-4.2c0.9-1.2,1.8-1.8,2.7-1.8
		C185.8,81.8,186.2,82.4,186.2,83.4 M188,83.4c0-1.9-0.8-3-2.4-3c-1.2,0-2.4,0.7-3.1,1.7c0.1-0.4,0.3-1.1,0.4-1.5l0.2-1.3
		c0.2-1.2,0.3-2.3,0.1-2.9l-1.7,0.6c0.2,0.6,0.1,1.6-0.1,2.6l-1.6,7.7c-0.1,0.4-0.2,1-0.3,1.3c0.9,0.7,2.3,1,3.5,1
		c1,0,2-0.3,2.8-1.1C187.2,87.5,188,85.5,188,83.4"/>
	<path style="clip-path:url(#SVGID_00000078763316481644189970000011417660286903925433_);fill:#FFFFFF;" d="M195.4,82.8
		c0,0.4-0.2,0.7-0.4,1c-0.4,0.4-1.2,0.6-2.5,0.6c-0.3,0-0.7,0-0.9,0c0.4-1.8,1.5-2.7,2.5-2.7C195.1,81.6,195.4,82.1,195.4,82.8
		 M197.1,82.7c0-1.5-1-2.3-2.7-2.3c-1.1,0-2.1,0.4-3,1.2c-1.2,1.2-2,3.1-2,4.9c0,2.1,1.3,3.2,3,3.2c1.7,0,2.7-0.4,3.6-1.3l-0.6-1
		c-0.8,0.7-1.6,1-2.6,1c-1,0-1.7-0.6-1.7-1.8c0-0.3,0.1-0.7,0.1-1c0.3,0,0.7,0.1,1.1,0.1c1.9,0,3.1-0.4,3.8-1.1
		C196.8,84.1,197.1,83.4,197.1,82.7"/>
	<path style="clip-path:url(#SVGID_00000078763316481644189970000011417660286903925433_);fill:#FFFFFF;" d="M204.7,80.5
		c-0.2-0.1-0.4-0.1-0.7-0.1c-0.8,0-1.9,0.7-2.8,1.9c0.2-0.8,0.1-1.5-0.1-1.9l-1.5,0.7c0.2,0.6,0.2,1.2-0.1,2.5l-1.3,6h1.6l1.2-5.6
		c0.8-1.2,1.6-1.8,2.4-1.8c0.3,0,0.4,0,0.6,0.1L204.7,80.5z"/>
	<path style="clip-path:url(#SVGID_00000078763316481644189970000011417660286903925433_);fill:#FFFFFF;" d="M210.8,82l-1,4.4
		c-0.7,1.3-1.7,1.9-2.6,1.9c-0.8,0-1.3-0.5-1.3-1.7c0-1.2,0.6-3.2,1.4-4c0.6-0.6,1.3-0.9,2.1-0.9C210,81.8,210.4,81.8,210.8,82
		 M212.7,81.1c-0.9-0.5-1.7-0.7-3.1-0.7c-1.3,0-2.4,0.5-3.4,1.3c-1.2,1.1-2.1,3.1-2.1,5c0,1.9,0.9,3,2.5,3c1.2,0,2-0.4,2.8-1.3
		c0,0.1-0.2,1-0.4,1.5c-0.4,1.5-1.2,2-2.9,2c-1,0-1.8-0.2-2.7-0.7l-0.6,1.2c1.1,0.6,2,0.8,3.1,0.8c2.5,0,4-0.9,4.7-3.5
		c0.1-0.6,0.3-1.7,0.5-2.7l0.9-4.2C212.3,82.2,212.6,81.3,212.7,81.1"/>
</g>
</svg>
