<?xml version="1.0" encoding="utf-8"?>
<!-- Generator: Adobe Illustrator 27.8.1, SVG Export Plug-In . SVG Version: 6.00 Build 0)  -->
<svg version="1.1" id="Ebene_1" xmlns="http://www.w3.org/2000/svg" xmlns:xlink="http://www.w3.org/1999/xlink" x="0px" y="0px"
	 viewBox="0 0 27 27" style="enable-background:new 0 0 27 27;" xml:space="preserve">
<style type="text/css">
	.st0{clip-path:url(#SVGID_00000077323715063275628920000010468987936175612545_);fill:#C90130;}
</style>
<g>
	<defs>
		<rect id="SVGID_1_" x="0.3" y="0.4" width="26" height="26"/>
	</defs>
	<clipPath id="SVGID_00000009586502864414089480000013184299394232623491_">
		<use xlink:href="#SVGID_1_"  style="overflow:visible;"/>
	</clipPath>
	<path style="clip-path:url(#SVGID_00000009586502864414089480000013184299394232623491_);fill:#C90130;" d="M23,20.3
		c-1.1,0-2-0.1-2.8,0c-0.3,0.1-0.9,0.5-0.9,0.9c0,1.3-0.4,2.9,0.3,3.7c0.7,0.9,2.8-0.1,3.1-1.3C22.9,22.6,22.9,21.6,23,20.3 M7.2,25
		c0-1.3,0.1-2.6,0-3.8c0-0.3-0.5-0.7-0.8-0.8c-0.7-0.1-1.4-0.1-2.1,0c-0.3,0-0.7,0.3-0.8,0.5C2.5,23.4,4.3,25.4,7.2,25 M19.4,18.8
		c4.4,0.5,3.8,0.2,4-2.8c0-0.5,0-0.9,0-1.4c-3.7-0.5-3.7-0.5-3.9,2.8C19.5,17.9,19.5,18.3,19.4,18.8 M2.8,14.5
		C2.9,16,3,17.2,3.2,18.4c0,0.2,0.6,0.5,0.9,0.6c0.6,0.1,1.3,0.1,2,0c0.3-0.1,0.8-0.5,0.8-0.7c0.1-1,0.1-1.9-0.1-2.9
		c0-0.3-0.5-0.7-0.8-0.8C5,14.5,4,14.5,2.8,14.5 M12.4,22.7c0-2.5,0-2.4-2.5-2.4c-1.1,0-1.5,0.3-1.4,1.3c0.1,0.6,0,1.2,0.1,1.9
		c0.2,1.7,0.3,1.7,2.6,1.6c1.5,0,1.1-1,1.2-1.8C12.5,23.1,12.4,22.9,12.4,22.7 M12.6,16.8c-0.2-2.3-0.2-2.2-2.6-2.3
		c-1.5-0.1-2.1,0.3-1.8,1.8c0.1,0.6,0,1.2,0.1,1.9c0,0.3,0.3,0.8,0.5,0.8C9.9,19,11,19.1,12,18.8C12.4,18.7,12.4,17.5,12.6,16.8
		 M13.8,22.7c0,0.5-0.1,1,0,1.4c0.2,0.4,0.7,0.9,1.1,1c2.5,0.3,2.5,0.2,2.8-2.1c0.3-2.8,0.3-3-2.8-2.6c-0.4,0-0.8,0.6-1.1,1
		C13.7,21.7,13.8,22.2,13.8,22.7 M13.8,16.7c0,2.3,0,2.3,1.9,2.3c2.5,0,2.4,0,2.5-3.1c0.1-1.7-1.1-1.4-2.1-1.4
		C13.8,14.5,13.8,14.5,13.8,16.7 M19.9,10.7c-0.3,0.5-0.6,1-0.8,1.4c-0.3-0.3-0.6-0.7-1-0.9c-0.4-0.2-0.9-0.5-1.3-0.5
		c-2.3,0-4.7,0-7,0c-0.5,0-0.9,0.2-1.3,0.5c-0.4,0.2-0.7,0.6-1,0.9c-0.3-0.4-0.5-0.8-0.9-1.4c-1,0-2.2,0-3.4,0c-1,0-1.6,0.1-1.6,1.3
		c0,1.1,0.6,1.2,1.5,1.2c3,0,6,0,9,0c3.8,0,7.6,0,11.5,0c1,0,1.5-0.2,1.5-1.3c0-1.1-0.6-1.3-1.5-1.2C22.2,10.8,21,10.7,19.9,10.7
		 M9.1,9.3h8.1c-0.8-1.8-1.5-3.5-2.2-5.2c-0.1-0.3-0.3-0.6-0.4-0.9c-0.5-2-4.6,0.9-3-2.5c0.3-0.1,3-1.5,4.2,2
		c0.7,1.8,1.6,3.5,2.3,5.4c0.4,1,1,1.4,2.2,1.3c1.5-0.1,3.1,0,4.6,0c0.9,0,1.3,0.3,1.3,1.2c0,0.9,0,1.8,0,2.8c0,0.2,0,0.6-0.2,0.7
		c-2.2,1.3-1.1,3.5-1.6,5.3c-0.3,1.2-0.3,2.6-0.4,3.9c-0.2,2.2-1.4,3.2-3.7,3.2c-4.8,0-9.7,0-14.5,0c-2.4,0-3.4-1-3.7-3.2
		c-0.2-2.3-0.4-4.5-0.7-6.8c-0.1-0.8-0.7-1.5-0.9-2.2c-0.5-1.4-0.2-3-0.1-4.6c0-0.1,0.7-0.2,1.1-0.3c1.6,0,3.2-0.1,4.7,0
		c1,0,1.5-0.3,1.8-1.2C8.8,6.5,9.6,4.8,10.4,3c1.5-3.5,1.9-2.1,2.3-2.4c0,0.5-0.9,2.4-1,2.8C10.8,5.4,10,7.2,9.1,9.3"/>
</g>
</svg>
